<?xml version="1.0" standalone="no"?> <!DOCTYPE svg PUBLIC "-//W3C//DTD SVG 20010904//EN" "http://www.w3.org/TR/2001/REC-SVG-20010904/DTD/svg10.dtd"> <svg version="1.0" xmlns="http://www.w3.org/2000/svg" width="378.000000pt" height="436.000000pt" viewBox="0 0 378.000000 436.000000" preserveAspectRatio="xMidYMid meet"> <g transform="translate(0.000000,436.000000) scale(0.100000,-0.100000)" fill="#ffffff" stroke="none"> <path d="M1890 4163 c0 -5 -41 -9 -92 -10 -91 -2 -158 -21 -158 -45 0 -6 -10 -3 -22 8 l-21 19 19 -30 c18 -27 18 -29 1 -22 -10 4 -16 3 -12 -2 3 -5 1 -11 -5 -13 -18 -6 -24 -102 -8 -119 8 -8 13 -20 10 -28 -3 -9 0 -11 7 -7 7 4 18 2 26 -4 8 -7 24 -10 35 -7 22 6 28 -8 8 -16 -9 -4 -10 -6 -1 -6 6 -1 18 6 27 14 8 8 17 15 20 15 8 0 76 67 76 74 0 3 -6 6 -14 6 -8 0 -18 9 -21 20 -4 11 -11 18 -16 15 -5 -4 -9 -1 -9 4 0 17 -52 13 -73 -6 -20 -18 -20 -18 -2 14 20 34 53 48 88 37 20 -6 20 -5 8 10 -13 15 -12 16 10 8 13 -5 30 -7 38 -4 8 3 11 0 7 -7 -5 -7 -1 -9 9 -5 18 7 48 -14 39 -28 -3 -5 -1 -15 5 -21 15 -19 7 -64 -17 -97 -12 -16 -22 -33 -22 -37 -1 -15 -50 -64 -59 -59 -4 3 -16 0 -26 -8 -14 -10 -16 -16 -6 -34 10 -18 9 -22 -4 -22 -8 0 -15 8 -15 17 0 15 -2 14 -15 -3 -10 -15 -22 -20 -40 -17 -14 3 -31 0 -39 -6 -8 -7 -26 -9 -43 -6 -19 5 -24 4 -14 -3 22 -16 -4 -22 -32 -7 -20 10 -25 10 -21 1 3 -7 -6 -20 -20 -29 -17 -12 -24 -25 -24 -45 1 -16 -2 -34 -6 -40 -3 -6 -1 -12 6 -14 6 -2 -32 -2 -84 0 -71 3 -104 0 -129 -11 -19 -8 -41 -18 -49 -21 -26 -11 -65 -36 -58 -36 12 0 -39 -50 -51 -50 -6 0 -11 -5 -11 -11 0 -5 4 -8 9 -5 5 4 7 -3 4 -14 -6 -23 -23 -37 -23 -19 0 7 -2 10 -5 7 -3 -3 0 -18 6 -34 7 -16 11 -39 10 -51 -4 -43 55 -124 95 -131 54 -10 116 -5 142 11 6 5 17 5 24 1 6 -4 8 -3 5 3 -10 15 18 24 32 10 8 -8 11 -8 11 1 0 7 -5 12 -11 12 -6 0 -9 6 -6 13 2 6 9 11 14 10 10 -2 9 20 -1 102 -2 22 -9 31 -25 33 -17 3 -20 7 -12 16 8 10 4 12 -19 11 -17 -1 -30 3 -30 9 0 6 -5 5 -12 -2 -20 -20 -30 -14 -17 11 12 21 11 21 -8 4 -11 -9 -23 -14 -28 -10 -4 5 -5 2 -1 -4 4 -8 1 -13 -9 -13 -8 0 -20 -11 -25 -24 -5 -13 -14 -27 -19 -31 -18 -10 -12 -50 10 -74 12 -12 18 -25 15 -29 -4 -3 -18 6 -32 21 -28 31 -35 98 -14 138 31 57 89 95 105 69 3 -5 0 -7 -8 -5 -15 6 -67 -37 -67 -56 0 -7 10 -1 23 12 12 13 41 31 65 38 23 8 42 18 42 22 0 8 26 6 36 -3 3 -4 21 -4 40 -1 24 4 34 2 34 -8 0 -10 3 -10 12 -1 18 18 51 15 44 -3 -3 -9 0 -15 10 -15 10 0 14 6 10 15 -4 13 -2 14 14 5 11 -6 20 -13 20 -16 0 -3 -4 -3 -8 0 -12 7 -40 -28 -44 -56 -2 -13 -8 -23 -15 -23 -6 0 -15 -3 -19 -7 -4 -5 -2 -8 5 -8 8 0 10 -7 6 -19 -7 -22 36 -71 63 -72 9 0 12 -3 5 -5 -13 -6 -6 -34 9 -34 5 0 6 5 3 10 -7 12 29 62 39 53 3 -3 6 -1 6 5 0 6 -5 14 -11 17 -6 4 -8 13 -5 20 3 9 -2 11 -17 8 -17 -3 -19 -2 -7 5 17 11 49 10 68 -2 7 -4 12 -2 12 7 0 8 7 18 16 21 24 9 28 7 14 -9 -11 -13 -11 -18 0 -28 9 -9 11 -9 6 0 -3 6 -2 14 4 18 5 3 10 2 10 -2 0 -5 14 -17 32 -28 29 -17 30 -19 12 -27 -17 -7 -16 -8 6 -7 40 2 50 0 50 -10 0 -5 -8 -12 -17 -14 -17 -4 -17 -5 0 -6 9 0 17 -5 17 -11 0 -5 5 -10 11 -10 8 0 8 5 -1 15 -8 9 -9 15 -2 15 16 0 23 -16 16 -34 -5 -12 -10 -13 -26 -5 -11 6 -22 8 -25 5 -8 -8 7 -26 23 -26 18 0 60 -37 52 -46 -4 -3 -16 0 -28 6 -16 9 -25 9 -33 1 -6 -6 -7 -11 -1 -11 5 0 -14 -14 -43 -30 -81 -47 -123 -119 -123 -215 0 -27 7 -63 16 -80 13 -25 13 -31 1 -40 -7 -5 -12 -17 -10 -25 3 -11 1 -11 -10 2 -8 10 -16 16 -19 13 -9 -10 -79 -14 -73 -5 4 6 1 10 -4 10 -6 0 -11 -4 -11 -10 0 -5 -6 -10 -14 -10 -8 0 -17 -7 -20 -16 -3 -8 -10 -13 -14 -10 -10 6 -28 -15 -60 -65 -18 -29 -22 -51 -22 -113 0 -43 4 -76 10 -76 5 0 12 -11 16 -25 3 -14 10 -25 15 -25 5 0 9 -7 9 -15 0 -8 5 -15 11 -15 5 0 7 -5 4 -10 -4 -6 -10 -8 -14 -5 -5 2 -28 1 -52 -4 -43 -9 -43 -9 23 -10 37 -1 70 -5 73 -11 3 -5 16 -10 29 -10 12 0 43 -7 69 -16 34 -11 47 -21 47 -35 0 -30 25 -12 48 34 21 41 69 86 56 52 -4 -8 -10 -15 -15 -15 -5 0 -9 -7 -9 -15 0 -20 13 -19 33 3 15 17 21 35 18 60 -1 16 -28 16 -38 0 -12 -19 -68 -48 -92 -48 -12 0 -21 -4 -21 -10 0 -5 -7 -10 -15 -10 -18 0 -20 16 -2 23 6 3 -5 3 -25 0 -34 -5 -41 -1 -92 47 -31 29 -56 61 -56 71 0 10 -4 20 -8 23 -15 9 5 127 25 155 39 51 80 71 151 71 64 0 67 -1 104 -41 23 -25 38 -50 38 -66 0 -34 -43 -73 -80 -73 -33 0 -90 30 -90 47 0 25 22 24 46 -2 18 -20 30 -25 47 -20 32 10 40 20 40 51 0 44 -55 84 -113 83 -104 -1 -149 -67 -141 -208 1 -26 100 -131 123 -131 7 0 2 9 -12 19 -96 72 -116 120 -89 212 15 49 44 75 92 82 32 5 35 4 23 -9 -8 -8 -21 -14 -29 -14 -42 0 -83 -107 -63 -164 30 -83 138 -132 201 -90 30 20 33 38 5 29 -14 -5 -20 -2 -20 9 0 20 49 21 75 2 11 -8 25 -12 32 -9 13 5 16 -4 14 -47 -3 -37 -21 -69 -45 -76 -26 -9 -76 -45 -76 -56 0 -4 8 -8 18 -8 35 0 126 -87 154 -147 49 -106 34 -256 -32 -332 -30 -34 -34 -55 -6 -30 53 48 59 56 90 117 27 54 33 82 16 82 -5 0 -10 11 -10 25 0 18 5 25 20 25 13 0 18 -5 14 -14 -3 -8 -1 -23 5 -33 10 -17 10 -17 12 2 1 11 1 24 0 29 -1 4 3 24 10 43 8 26 8 38 0 46 -8 8 -11 5 -11 -11 0 -12 -4 -22 -9 -22 -4 0 -11 30 -14 67 -4 37 -12 70 -19 74 -10 6 -9 12 5 26 15 14 18 15 16 3 -3 -19 26 -84 53 -121 15 -20 19 -34 13 -56 -4 -15 -9 -37 -10 -48 -2 -11 -5 -26 -6 -34 -2 -7 2 -16 9 -18 6 -3 12 2 12 9 0 20 42 58 64 58 33 0 55 -18 49 -41 -5 -18 -3 -20 16 -14 27 8 28 -9 1 -37 -11 -12 -20 -28 -20 -35 0 -14 -47 -39 -70 -37 -8 1 -21 2 -27 3 -18 1 -16 46 2 61 8 7 15 19 15 26 0 8 5 14 10 14 6 0 10 -4 10 -10 0 -5 7 -10 15 -10 8 0 15 -7 15 -15 0 -9 -9 -15 -25 -15 -14 0 -25 -4 -25 -10 0 -19 45 -9 62 14 15 21 15 25 3 30 -8 3 -15 15 -15 26 0 31 -28 24 -70 -19 -32 -33 -39 -46 -38 -79 0 -32 3 -39 16 -35 9 4 13 2 9 -4 -5 -7 0 -9 13 -6 22 6 26 -7 8 -25 -16 -16 -3 -15 14 1 24 22 59 38 68 32 6 -4 10 1 10 9 0 21 16 20 30 -1 10 -16 11 -16 4 2 -8 22 -7 62 2 76 7 12 24 11 24 -2 0 -5 -6 -7 -12 -3 -10 5 -10 4 -1 -6 7 -7 9 -25 6 -40 -3 -15 -1 -30 4 -33 5 -3 7 -25 4 -49 l-6 -43 -40 4 c-22 1 -44 6 -50 9 -5 4 -19 7 -30 7 -45 3 -101 18 -111 31 -10 13 -12 12 -18 -1 -3 -10 0 -15 11 -15 9 0 13 -3 9 -7 -11 -11 -76 -13 -76 -2 0 5 4 9 8 9 8 0 24 12 70 50 6 6 12 23 12 38 0 15 3 37 6 50 4 12 2 22 -4 22 -6 0 -13 -17 -17 -39 -5 -29 -19 -51 -58 -88 -29 -28 -63 -54 -77 -58 -14 -4 -36 -18 -50 -31 -57 -55 -105 -94 -122 -100 -10 -3 -18 -10 -18 -15 0 -13 5 -12 45 11 28 16 58 21 134 23 56 1 108 -3 122 -9 13 -6 38 -17 54 -25 66 -30 160 -108 171 -142 7 -21 -6 -39 -13 -19 -16 43 -126 123 -172 124 -17 1 -31 4 -31 8 0 10 -108 32 -159 32 -26 0 -66 -8 -91 -17 -107 -40 -120 -24 -41 51 29 27 47 52 44 60 -3 8 -1 14 4 14 12 0 48 62 45 77 -1 6 3 15 9 19 9 5 11 -5 6 -37 -3 -24 -3 -36 0 -26 2 9 8 17 13 17 7 0 22 33 24 57 1 6 5 15 9 19 12 12 8 63 -7 92 -8 15 -33 45 -56 67 l-41 40 -24 -27 c-12 -15 -25 -33 -28 -40 -2 -7 -8 -9 -13 -4 -5 5 -4 11 4 13 6 3 12 10 12 17 0 7 13 25 30 41 24 23 38 28 75 27 38 0 43 2 31 14 -17 16 -42 18 -51 5 -3 -5 -19 -12 -35 -16 -17 -4 -30 -11 -30 -16 0 -5 -5 -9 -11 -9 -11 0 -59 -49 -59 -60 0 -3 7 -16 16 -28 18 -25 39 -29 48 -7 6 17 32 20 42 4 10 -17 -22 -42 -56 -42 -36 0 -62 22 -65 55 -2 24 33 98 47 98 4 0 33 12 63 27 45 21 56 30 52 45 -4 15 -1 18 15 12 14 -4 19 -2 16 7 -3 8 -21 18 -41 22 -20 5 -37 13 -37 18 0 5 -6 9 -14 9 -7 0 -28 16 -47 35 -50 52 -85 66 -139 57 -41 -7 -45 -10 -44 -35 1 -17 -4 -27 -12 -27 -8 0 -14 11 -14 25 0 25 -14 33 -25 15 -10 -16 14 -50 35 -50 13 0 20 -7 20 -20 0 -19 -2 -20 -29 -5 -17 8 -36 24 -44 36 -14 19 -13 25 6 57 12 20 16 32 9 28 -7 -4 -12 -2 -12 3 0 14 -47 14 -55 1 -3 -5 -13 -10 -22 -10 -8 0 -37 -22 -64 -50 -26 -27 -51 -45 -54 -40 -3 5 12 27 34 50 21 22 35 43 30 46 -5 3 -9 1 -9 -4 0 -5 -11 -15 -25 -22 -13 -7 -28 -23 -31 -34 -4 -12 -12 -24 -18 -28 -8 -6 -7 -8 2 -8 6 0 12 -7 12 -16 0 -8 -4 -12 -10 -9 -6 4 -10 -8 -10 -29 0 -20 5 -36 11 -36 7 0 9 -10 5 -24 -5 -20 2 -32 30 -60 21 -20 40 -36 44 -36 5 0 10 -6 13 -13 7 -18 -31 -19 -57 -1 -11 7 -15 14 -9 14 7 0 15 -4 18 -10 3 -5 11 -10 17 -10 7 0 6 6 -2 15 -7 8 -21 15 -31 15 -11 0 -30 17 -45 40 -22 33 -25 47 -21 87 3 27 3 40 1 31 -3 -10 -10 -18 -15 -18 -10 0 -12 -63 -3 -97 4 -13 10 -20 15 -17 5 3 9 1 9 -5 0 -6 16 -26 35 -46 27 -27 44 -35 70 -35 19 0 35 5 35 10 0 6 8 10 17 10 9 0 13 3 10 7 -4 3 -2 12 4 20 9 10 8 13 0 13 -7 0 -9 5 -6 11 10 16 28 5 32 -20 2 -13 -1 -20 -7 -16 -5 3 -10 -3 -10 -13 0 -21 -20 -31 -85 -42 l-40 -7 53 -1 c28 -1 52 1 52 6 0 4 10 12 23 17 17 8 23 19 25 56 3 39 0 47 -16 51 -30 8 -46 -6 -38 -36 8 -32 -7 -34 -28 -5 -13 19 -13 24 0 44 19 29 69 38 88 16 22 -26 42 -91 30 -99 -14 -9 -28 -43 -25 -62 1 -12 0 -12 -7 -1 -7 10 -14 10 -30 2 -28 -15 -125 -14 -140 1 -7 7 -12 8 -12 3 0 -5 -13 7 -30 25 -16 18 -30 40 -30 47 0 7 -5 13 -11 13 -5 0 -7 4 -4 10 3 5 1 28 -6 49 -9 31 -9 44 0 54 6 8 8 23 4 32 -4 13 -3 16 5 11 7 -4 12 -1 12 9 0 44 108 155 151 155 15 0 30 4 33 8 9 14 66 13 122 -4 31 -9 69 -13 85 -10 16 3 29 2 29 -2 0 -11 74 -32 83 -23 16 16 -107 48 -218 58 -27 3 -54 8 -58 13 -5 4 -33 -1 -63 -12 -44 -16 -58 -17 -70 -7 -12 10 -13 9 -8 -4 4 -11 -8 -31 -35 -59 -22 -24 -43 -51 -46 -60 -4 -9 -11 -16 -18 -14 -7 1 -9 1 -5 -1 5 -3 2 -14 -4 -26 -39 -69 -24 -187 32 -245 16 -17 25 -34 22 -38 -4 -4 1 -4 11 -1 10 4 33 -2 52 -13 32 -18 37 -18 77 -3 38 13 60 19 91 22 5 1 5 5 2 11 -3 5 -1 10 5 10 7 0 10 6 8 12 -3 7 2 19 9 27 9 9 12 24 7 45 -3 17 -7 36 -8 41 -2 17 -46 55 -64 56 -38 3 -58 -3 -71 -22 -14 -20 -51 -27 -51 -9 0 6 7 10 17 10 20 0 11 10 -14 15 -29 6 -29 6 -8 15 15 7 16 9 4 9 -27 1 -31 42 -7 68 12 13 28 23 35 23 8 0 12 4 9 8 -2 4 -2 12 2 18 10 15 72 56 72 48 0 -3 6 -1 13 5 11 8 13 6 12 -11 -1 -11 -10 -27 -21 -36 -18 -14 -18 -14 4 -9 17 4 22 2 18 -8 -5 -15 15 -35 59 -58 17 -9 25 -16 18 -17 -7 0 -10 -7 -6 -16 4 -12 8 -11 17 8 7 13 20 22 29 22 9 -1 15 1 13 5 -3 4 -1 13 4 21 5 8 3 19 -5 27 -21 21 -7 42 32 49 28 5 38 3 45 -10 5 -9 13 -14 19 -11 5 4 9 -2 9 -11 0 -10 3 -15 6 -11 3 3 30 -14 60 -39 30 -24 59 -44 65 -44 6 0 7 -5 4 -10 -4 -6 -11 -7 -17 -4 -7 5 -9 1 -5 -9 5 -12 1 -17 -13 -17 -10 0 -22 -4 -25 -10 -3 -5 -14 -10 -23 -10 -10 0 -23 -9 -30 -20 -7 -12 -17 -18 -23 -15 -5 4 -9 3 -8 -2 3 -19 -2 -34 -9 -29 -5 3 -8 -16 -8 -42 1 -49 16 -72 65 -100 17 -10 26 -10 37 -1 8 6 14 8 14 3 0 -5 7 0 15 10 8 11 16 18 18 15 22 -30 35 -59 27 -59 -5 0 -10 -7 -10 -15 0 -9 6 -12 15 -9 10 4 15 20 15 44 0 21 -7 45 -15 54 -8 8 -15 21 -15 28 0 8 -5 19 -12 26 -9 9 -9 12 0 12 7 0 12 -3 12 -8 0 -4 11 -19 24 -33 23 -24 31 -60 27 -117 -1 -18 -5 -22 -20 -17 -21 6 -55 -21 -45 -36 3 -5 -8 -25 -25 -44 -18 -21 -28 -41 -24 -50 3 -9 1 -15 -4 -13 -22 7 -87 -91 -77 -115 3 -8 0 -18 -7 -23 -7 -4 -15 -2 -17 4 -2 7 -8 9 -14 6 -6 -4 -5 -10 3 -15 11 -7 9 -10 -8 -15 -13 -4 -23 -12 -23 -19 0 -7 -10 -11 -25 -10 -14 2 -25 -1 -25 -7 0 -5 10 -7 23 -3 21 6 21 6 3 -9 -11 -9 -17 -16 -13 -16 4 0 -2 -16 -14 -36 -11 -21 -18 -47 -16 -63 5 -29 26 -72 41 -82 5 -4 5 -13 1 -20 -6 -9 -4 -11 8 -6 11 4 22 -2 32 -16 8 -12 19 -21 23 -19 4 2 16 1 27 -2 17 -5 18 -8 5 -16 -12 -7 -11 -9 5 -9 11 0 46 -3 77 -7 48 -5 62 -3 92 16 20 12 34 26 31 30 -3 5 -20 0 -38 -10 -33 -20 -117 -28 -117 -11 0 5 -14 12 -31 16 -38 9 -110 81 -127 128 -12 32 -10 38 15 80 44 71 109 112 197 123 37 5 146 -27 216 -63 14 -7 31 -13 39 -13 23 0 121 -110 121 -135 0 -27 -30 -15 -43 17 -17 39 -64 98 -80 98 -6 0 1 -12 14 -27 34 -37 59 -79 59 -98 0 -8 5 -15 11 -15 7 0 9 -10 5 -25 -5 -21 -3 -25 15 -25 18 0 20 2 8 16 -10 13 -10 17 2 25 8 5 18 9 23 9 4 0 5 7 2 16 -4 9 -1 23 5 30 8 10 8 14 0 14 -6 0 -11 10 -11 23 0 15 -3 18 -9 9 -11 -18 -36 12 -27 33 3 8 2 14 -2 14 -4 -1 -16 -1 -27 0 -19 2 -19 3 2 13 23 11 39 38 22 38 -5 0 -12 -6 -14 -12 -3 -7 -17 -14 -31 -14 -19 -2 -24 2 -19 13 5 13 3 14 -11 3 -9 -8 -18 -10 -22 -4 -7 9 -49 30 -107 54 -16 7 -38 16 -48 22 -10 5 -23 6 -30 2 -7 -4 -9 -3 -4 1 13 15 97 16 103 1 3 -8 17 -12 34 -10 16 2 32 -1 35 -6 3 -6 -2 -10 -12 -11 -14 0 -15 -2 -3 -6 8 -3 19 -11 23 -17 6 -7 7 -5 4 6 -6 18 19 33 28 17 4 -5 12 -8 18 -7 16 3 77 -30 77 -41 0 -5 9 -11 19 -14 11 -2 29 -24 42 -48 35 -71 61 -74 96 -13 13 21 23 36 23 32 0 -5 8 0 19 10 10 9 18 22 17 27 -1 6 7 9 16 7 9 -1 19 2 23 8 3 5 13 10 21 10 12 0 12 -4 4 -20 -7 -14 -7 -26 -1 -39 6 -10 7 -22 3 -25 -4 -4 1 -12 11 -17 9 -6 17 -17 17 -25 0 -8 5 -12 10 -9 6 4 16 3 23 -2 7 -5 24 -9 39 -8 15 0 24 -3 22 -7 -3 -4 -20 -9 -37 -9 -25 -1 -27 -3 -9 -6 32 -6 78 14 103 45 16 21 22 24 29 12 6 -9 5 -17 -2 -21 -7 -5 -7 -8 1 -10 8 -3 5 -12 -8 -26 -11 -11 -17 -23 -14 -27 3 -3 -1 -8 -10 -12 -9 -3 -13 -12 -10 -20 3 -8 -1 -14 -8 -14 -7 0 -3 -7 9 -16 12 -8 19 -20 16 -26 -4 -6 -2 -8 4 -4 6 3 13 2 17 -4 3 -5 1 -10 -4 -10 -6 0 -11 -5 -11 -11 0 -8 4 -8 13 -1 6 5 30 15 52 21 52 14 57 18 88 68 14 23 31 44 36 47 6 4 8 13 4 21 -3 9 1 15 8 15 9 0 10 3 4 8 -6 4 -23 23 -39 42 -16 19 -32 34 -35 33 -13 -6 -71 19 -71 29 0 6 -3 9 -6 5 -10 -9 -34 19 -34 40 1 32 37 65 62 58 l23 -6 -21 18 c-14 12 -23 35 -26 66 -9 78 -22 79 -31 4 -4 -38 -2 -47 9 -43 21 8 17 -17 -6 -37 -11 -9 -27 -14 -37 -10 -12 5 -15 2 -10 -10 3 -9 2 -19 -3 -22 -6 -4 -10 -14 -9 -23 0 -11 3 -12 6 -4 7 18 23 15 23 -6 0 -22 35 -62 55 -62 8 0 15 -4 15 -9 0 -4 16 -11 35 -14 20 -3 44 -16 54 -29 18 -21 18 -24 2 -58 -29 -64 -70 -100 -111 -100 -21 0 -43 6 -49 14 -9 11 -3 21 30 50 24 20 46 36 50 36 4 0 9 6 12 14 4 9 -9 24 -34 41 -22 14 -45 37 -51 50 -6 14 -15 25 -20 25 -5 0 -7 -4 -4 -8 2 -4 1 -14 -5 -22 -6 -12 -9 -12 -9 -2 0 8 -9 12 -24 10 -41 -5 -76 42 -41 56 9 3 15 0 15 -8 0 -7 7 -19 15 -26 11 -10 18 -9 30 3 16 16 21 32 7 23 -5 -3 -17 5 -27 16 -12 15 -14 23 -7 26 7 2 12 12 12 22 0 11 10 20 26 24 21 6 25 11 20 30 -3 13 1 31 9 42 16 21 19 44 7 44 -5 0 -15 -11 -22 -25 -8 -15 -28 -29 -49 -35 -20 -5 -51 -19 -69 -30 -18 -11 -42 -20 -55 -20 -22 0 -36 -7 -110 -48 -34 -20 -43 -21 -82 -11 -42 11 -58 30 -35 44 6 3 10 2 10 -2 0 -12 61 -34 73 -26 13 8 -62 42 -95 43 -16 0 -28 5 -28 10 0 6 -8 10 -18 10 -9 0 -34 11 -54 25 -33 22 -47 25 -132 25 -52 0 -98 -4 -101 -10 -3 -5 -17 -10 -31 -10 -35 0 -20 18 21 26 20 3 38 10 41 15 3 5 63 9 134 9 105 0 137 -4 174 -20 31 -13 46 -25 45 -37 0 -11 -3 -13 -6 -5 -2 6 -15 12 -27 12 -12 0 -26 4 -31 9 -6 4 -26 11 -45 15 -29 5 -32 4 -20 -7 16 -14 64 -31 116 -42 17 -3 41 -15 54 -27 18 -17 26 -19 46 -9 13 6 24 19 24 30 0 20 47 36 75 25 20 -8 85 5 85 16 0 6 -48 10 -112 10 -78 0 -121 5 -140 14 -15 8 -51 19 -81 26 -50 10 -86 11 -240 6 -32 0 -61 2 -63 6 -3 5 10 8 29 8 18 0 37 3 41 7 25 25 267 5 328 -28 12 -7 58 -12 103 -12 44 0 97 -6 119 -13 46 -17 49 -17 41 -4 -3 5 0 7 8 4 8 -3 36 17 67 46 44 42 55 48 62 35 5 -8 7 -19 3 -24 -3 -5 -1 -12 5 -16 5 -3 10 -17 10 -29 0 -13 6 -38 14 -56 l13 -32 6 28 c2 15 -1 44 -8 63 -6 20 -11 46 -10 58 1 13 -2 23 -7 23 -14 0 -9 39 7 48 9 4 18 25 20 47 3 21 7 41 10 43 3 3 0 11 -6 18 -9 11 -7 15 5 20 13 5 14 10 5 20 -6 7 -8 18 -4 23 3 6 5 124 4 263 -2 350 -3 391 -13 407 -5 7 -4 16 1 20 7 4 7 32 1 79 -8 70 3 167 27 225 4 10 3 17 -5 17 -6 0 -8 5 -4 12 4 6 8 21 10 32 4 39 16 66 30 66 8 0 14 5 14 10 0 6 -6 10 -14 10 -8 0 -17 9 -21 19 -6 21 -28 34 -62 36 -21 1 -21 0 -6 -17 15 -17 14 -18 -10 -18 -15 0 -27 -4 -27 -9 0 -9 -44 -21 -104 -27 -29 -3 -37 -1 -33 9 3 9 -3 12 -22 10 -25 -4 -106 30 -106 45 0 4 -8 7 -18 6 -12 0 -16 4 -12 14 3 9 0 12 -8 9 -9 -3 -23 10 -38 34 -13 21 -27 39 -31 39 -4 0 -11 18 -14 40 -4 25 -12 40 -21 40 -10 0 -11 5 -4 19 6 10 8 28 6 40 -2 11 1 21 6 21 6 0 8 4 4 10 -9 15 27 50 52 50 12 0 27 9 33 20 6 11 8 20 4 20 -3 0 -1 7 6 15 11 13 10 14 -3 9 -9 -3 -25 3 -38 15 -25 23 -35 26 -44 11 -3 -5 -11 -10 -16 -10 -18 0 19 30 38 31 17 0 17 1 0 7 -16 7 -16 9 3 25 12 10 25 15 30 12 5 -3 17 2 27 12 10 10 35 19 58 20 30 1 35 0 20 -7 l-20 -9 20 0 c16 -1 17 -3 5 -10 -8 -6 -18 -7 -23 -4 -5 3 -6 -4 -2 -16 5 -15 2 -21 -9 -21 -9 0 -16 -5 -16 -11 0 -5 5 -7 11 -3 6 3 15 1 19 -6 5 -7 22 -13 39 -12 17 0 33 -4 36 -9 4 -5 12 -9 18 -9 7 0 6 4 -3 10 -8 5 -10 10 -4 10 23 0 23 -15 -2 -47 -19 -25 -25 -43 -22 -66 7 -46 11 -60 26 -75 6 -7 12 -20 12 -28 0 -8 5 -12 10 -9 15 9 51 -5 44 -17 -5 -7 0 -9 14 -6 12 4 25 2 28 -3 3 -5 19 -9 35 -9 17 0 28 -4 25 -8 -5 -9 22 -8 81 2 24 4 46 12 49 17 3 6 15 7 27 4 15 -4 18 -3 9 3 -10 7 -10 11 3 22 14 12 18 11 27 -1 7 -10 8 -7 4 13 -5 23 -3 27 11 22 13 -4 14 -3 5 3 -10 8 -9 16 5 44 10 19 20 36 23 39 3 3 5 28 4 55 0 89 -3 107 -15 99 -7 -4 -10 -1 -7 7 3 8 -1 19 -8 26 -7 7 -21 23 -31 36 -22 28 -78 68 -99 71 -8 1 -23 15 -33 30 -10 15 -21 24 -24 19 -8 -12 -74 -16 -81 -5 -3 5 -32 8 -64 7 -52 -2 -59 0 -55 15 12 44 -76 80 -111 45 -8 -8 -20 -15 -26 -15 -6 0 -8 -4 -5 -10 3 -5 1 -10 -4 -10 -6 0 -11 -7 -11 -15 0 -24 -26 -28 -49 -8 -38 34 -47 40 -64 37 -9 -1 -17 3 -17 9 0 5 -2 8 -5 5 -8 -8 6 -38 18 -38 14 0 77 -49 77 -61 0 -5 -7 -9 -15 -9 -9 0 -18 -7 -21 -15 -12 -31 -34 -16 -34 24 0 35 -3 39 -30 45 -17 3 -32 5 -35 3 -3 -1 -12 11 -21 28 -10 19 -12 31 -4 33 27 9 39 32 30 61 -5 19 -4 33 3 41 9 8 7 9 -8 4 -18 -7 -19 -6 -5 11 14 17 13 18 -2 12 -10 -3 -18 -3 -18 2 0 5 -9 11 -21 14 -17 5 -18 3 -7 -11 8 -10 9 -13 1 -9 -7 4 -17 0 -23 -10 -10 -16 -11 -15 -6 5 3 18 2 21 -8 13 -7 -6 -16 -8 -19 -4 -4 3 1 12 11 20 9 8 11 12 5 8 -18 -9 -72 25 -66 42 3 7 2 13 -1 13 -3 0 -6 -3 -6 -7z m21 -63 c10 -14 27 -35 36 -48 10 -12 17 -28 15 -34 -2 -6 1 -14 5 -17 18 -13 62 -113 68 -156 4 -25 11 -45 16 -45 17 0 9 -63 -12 -96 -24 -40 -43 -44 -37 -9 3 14 1 28 -3 31 -5 3 -9 24 -9 47 0 24 -7 53 -16 66 -17 24 -22 24 -103 4 -47 -12 -53 -33 -9 -33 32 0 74 -21 90 -44 4 -6 8 -23 8 -38 0 -15 5 -30 10 -33 6 -3 10 -38 10 -76 0 -44 4 -68 10 -64 6 3 10 18 10 33 0 38 11 72 22 72 6 0 7 -22 3 -57 -11 -104 -12 -168 -2 -191 13 -27 3 -39 -18 -22 -10 8 -15 31 -15 71 0 38 -5 63 -15 73 -10 10 -17 42 -21 93 -6 108 -30 153 -79 153 l-27 0 34 -27 c39 -32 48 -44 48 -60 0 -21 -18 -15 -26 9 -6 20 -8 20 -19 5 -11 -15 -14 -15 -31 5 -16 19 -16 21 -1 9 9 -8 21 -11 25 -7 9 10 -46 55 -78 63 -37 9 -54 24 -38 34 7 4 18 3 25 -2 15 -13 36 -2 29 16 -9 24 58 65 109 66 48 1 85 -47 86 -114 0 -38 1 -40 11 -19 9 18 6 37 -13 94 -13 39 -31 81 -41 93 -10 13 -18 28 -18 34 0 23 -19 10 -25 -18 -7 -32 -55 -84 -55 -60 0 9 7 24 15 35 19 26 19 123 -1 149 -12 17 -27 20 -96 20 -56 0 -83 -4 -86 -13 -2 -6 -9 -12 -16 -12 -7 0 -22 -9 -34 -20 -48 -45 -13 -134 43 -108 27 12 36 52 10 42 -8 -4 -15 -10 -15 -15 0 -5 -6 -9 -14 -9 -24 0 -6 40 21 46 18 5 31 1 46 -15 l22 -21 -32 -30 c-18 -17 -43 -30 -57 -30 -31 0 -66 28 -66 51 0 10 -6 19 -12 22 -10 3 -8 13 6 38 48 83 84 101 199 97 81 -3 90 -5 108 -28z m119 -39 c0 -14 -28 -33 -39 -27 -16 10 -1 36 20 36 10 0 19 -4 19 -9z m18 -58 c-5 -26 -38 -29 -38 -4 0 15 6 21 21 21 14 0 19 -5 17 -17z m282 -55 c0 -4 7 -8 15 -8 10 0 15 -10 15 -30 0 -20 -5 -30 -15 -30 -8 0 -15 -4 -15 -10 0 -5 -11 -10 -25 -10 -36 0 -117 -43 -91 -48 10 -2 22 1 25 7 4 5 26 13 49 17 34 5 42 4 42 -9 0 -11 -12 -17 -37 -20 -21 -2 -12 -3 19 -2 36 2 63 -2 75 -11 11 -8 13 -13 6 -14 -7 0 -13 -5 -13 -11 0 -6 7 -9 15 -5 10 4 15 -1 15 -14 0 -11 -7 -20 -15 -20 -8 0 -15 -7 -15 -16 0 -24 33 -12 47 17 16 34 6 68 -23 75 -13 3 -24 10 -24 14 0 11 131 11 145 0 6 -4 29 -10 52 -13 46 -5 102 -45 134 -94 24 -36 26 -150 4 -193 -16 -32 -67 -74 -102 -85 -13 -3 -23 -11 -23 -16 0 -12 17 -12 25 1 3 6 15 10 26 10 23 0 74 52 94 94 24 51 26 128 5 172 -23 48 -36 64 -75 89 -61 40 -82 47 -168 52 -63 4 -90 10 -99 22 -7 9 -8 13 -4 9 5 -4 15 -3 23 3 9 9 25 9 56 1 23 -6 62 -14 87 -17 25 -4 59 -15 75 -26 17 -10 37 -22 45 -26 24 -11 45 -35 74 -80 42 -68 34 -176 -18 -241 -30 -37 -71 -68 -99 -74 -62 -14 -167 11 -207 50 -26 25 -50 66 -50 84 0 22 55 85 81 93 11 4 31 17 46 31 30 28 48 30 103 8 32 -13 40 -21 40 -42 0 -31 -26 -62 -52 -62 -15 0 -18 -5 -12 -22 11 -38 25 -57 18 -25 -4 16 -2 27 4 27 6 0 17 3 25 6 11 4 14 -2 13 -27 -1 -26 -7 -34 -29 -40 -15 -4 -29 -3 -33 2 -3 5 -10 7 -15 4 -5 -4 -9 -2 -9 3 0 5 -9 12 -21 15 -12 3 -18 10 -14 16 3 6 1 11 -4 11 -6 0 -11 -6 -11 -12 0 -8 -7 -5 -15 6 -8 11 -15 14 -15 7 0 -7 -4 -9 -10 -6 -5 3 -10 1 -10 -5 0 -7 -5 -6 -14 2 -13 11 -13 14 0 24 8 6 14 17 14 25 0 11 2 11 11 -1 8 -11 12 -12 16 -2 5 12 55 17 66 5 4 -3 1 -13 -6 -21 -10 -13 -9 -14 11 -3 42 22 21 58 -36 59 -54 1 -112 -39 -112 -77 0 -46 88 -112 147 -110 15 0 21 3 13 6 -39 13 -99 43 -105 53 -8 13 25 26 34 13 11 -17 73 -43 101 -43 16 0 42 13 65 33 32 28 38 40 42 84 8 80 -3 119 -47 163 -37 37 -44 40 -142 54 -10 1 -21 5 -24 9 -4 4 -14 7 -23 7 -13 0 -15 -9 -13 -43 5 -65 -22 -94 -93 -99 -47 -3 -55 0 -55 15 0 9 6 17 13 17 8 0 22 9 32 20 17 19 17 21 0 40 -13 14 -31 20 -62 20 -27 0 -42 -4 -38 -10 3 -6 -4 -10 -17 -10 -58 0 -129 -84 -162 -194 -14 -45 -17 -75 -12 -129 4 -39 10 -75 15 -81 13 -17 46 -110 43 -121 -2 -11 103 -84 143 -100 29 -11 115 -23 115 -15 0 4 7 7 15 7 8 0 15 -4 15 -9 0 -15 58 -9 64 7 3 8 1 15 -3 15 -5 0 -11 -5 -13 -11 -2 -7 -12 -7 -31 0 -16 6 -48 11 -72 11 -51 0 -150 54 -187 102 -13 16 -29 36 -36 43 -7 8 -15 28 -18 45 -4 17 -11 33 -15 36 -5 3 -9 16 -9 30 0 13 -4 24 -9 24 -8 0 1 79 15 123 3 12 15 31 26 42 10 11 25 29 33 40 13 20 14 20 39 -4 19 -18 23 -27 14 -32 -7 -4 -16 -6 -20 -3 -15 10 -57 -29 -69 -63 -16 -51 -6 -140 22 -189 38 -65 61 -89 125 -130 55 -36 65 -38 152 -42 75 -4 101 -1 135 14 23 10 45 23 48 28 4 5 14 6 22 3 19 -7 16 -39 -9 -92 -18 -38 -19 -73 -19 -616 l0 -576 -45 -56 c-25 -31 -55 -59 -67 -63 -13 -3 -23 -10 -23 -15 0 -5 -9 -9 -19 -9 -11 0 -22 -4 -26 -9 -6 -11 -88 -13 -82 -2 34 62 72 195 60 214 -2 4 0 14 7 22 6 8 10 26 8 42 l-3 28 -13 -23 c-7 -12 -14 -38 -16 -58 -2 -19 -6 -37 -10 -41 -3 -3 -6 -24 -6 -45 0 -26 -4 -37 -11 -32 -8 4 -9 0 -4 -15 5 -18 2 -21 -22 -22 -17 -1 -21 -3 -10 -6 9 -2 17 -9 17 -14 0 -13 -34 -11 -48 3 -9 9 -12 9 -12 1 0 -7 9 -15 21 -18 16 -5 18 -10 8 -21 -6 -8 -21 -14 -33 -13 -11 0 -15 3 -8 6 9 3 10 9 2 17 -6 8 -12 103 -15 230 -3 120 -8 222 -11 227 -3 5 0 9 5 9 6 0 11 -5 11 -11 0 -6 7 -8 16 -5 8 3 12 2 9 -4 -5 -7 26 -31 45 -34 3 -1 4 -4 3 -7 -1 -4 7 -5 17 -2 17 4 20 0 20 -26 0 -21 10 -41 30 -63 17 -17 30 -37 30 -44 0 -8 3 -14 8 -14 4 0 5 -35 1 -77 -4 -55 -13 -95 -32 -133 -14 -30 -24 -56 -22 -59 8 -7 35 21 35 35 0 8 5 14 11 14 6 0 8 -7 5 -16 -5 -12 -1 -14 17 -9 33 11 67 45 65 69 0 12 1 28 4 36 3 8 3 12 1 8 -3 -5 -9 -8 -15 -8 -11 0 -27 -16 -51 -50 -22 -31 -23 -6 -1 35 9 18 11 31 5 33 -5 2 -7 10 -4 18 3 7 8 12 12 10 4 -3 12 4 19 14 10 16 9 18 -3 14 -8 -4 -15 -1 -15 5 0 6 9 11 20 11 11 0 20 4 20 9 0 5 9 11 20 14 32 8 35 8 35 -5 0 -7 -6 -14 -12 -14 -7 -1 -19 -2 -27 -3 -8 -1 -13 -12 -12 -31 1 -36 16 -41 16 -5 0 14 6 25 13 25 11 0 12 -10 7 -43 -3 -23 -10 -49 -14 -56 -6 -9 -4 -12 5 -9 16 5 29 57 36 146 l5 64 -29 -31 c-22 -23 -32 -28 -41 -19 -8 8 -13 7 -18 -5 -9 -25 -33 -21 -27 4 3 12 2 24 -4 28 -23 16 -63 80 -63 102 0 19 9 28 43 42 48 19 87 22 87 6 0 -5 5 -7 10 -4 12 7 30 -34 23 -52 -8 -21 -31 -15 -35 10 -2 14 -11 23 -25 25 -34 5 -32 -40 2 -58 28 -15 33 -40 8 -40 -28 0 -63 41 -64 74 0 30 -1 30 -10 7 -12 -31 -5 -51 30 -85 31 -30 48 -29 90 3 l24 19 -2 208 c-2 115 -5 229 -8 254 -8 72 -10 400 -2 400 4 0 9 24 12 53 10 93 12 102 30 118 32 30 18 40 -20 14 -21 -14 -41 -25 -45 -25 -5 0 -17 -9 -27 -19 -11 -11 -38 -25 -60 -31 -25 -7 -41 -17 -41 -26 0 -11 -6 -13 -20 -9 -11 3 -51 -5 -90 -19 -121 -44 -209 -33 -356 46 -73 39 -113 45 -196 32 -30 -5 -40 -14 -62 -54 -31 -57 -33 -97 -7 -149 33 -64 53 -73 163 -71 36 0 69 -4 73 -10 4 -6 -18 -10 -62 -11 l-68 -1 49 -10 c35 -6 58 -6 78 3 29 12 38 28 16 30 -7 0 -4 4 7 8 11 5 23 4 26 -2 6 -8 65 17 79 34 3 4 16 10 30 14 34 10 128 52 170 76 19 11 47 26 63 32 15 6 27 15 27 19 0 4 6 8 14 8 8 0 16 5 18 12 3 7 12 9 22 5 16 -6 16 -9 2 -22 -8 -8 -17 -15 -21 -15 -3 0 -34 -17 -68 -38 -34 -20 -71 -42 -82 -48 -17 -10 -20 -23 -23 -98 l-3 -86 36 0 c19 0 35 5 35 10 0 6 -6 10 -14 10 -19 0 -26 22 -26 80 0 46 17 80 41 80 5 0 11 0 14 0 2 0 17 12 32 26 19 17 30 21 37 14 8 -8 8 -13 0 -18 -11 -7 -13 -25 -14 -107 -1 -69 -7 -84 -30 -78 -11 3 -20 0 -20 -6 0 -6 15 -10 34 -9 l33 1 5 86 c5 79 27 149 51 159 4 2 7 8 7 13 0 31 141 132 159 113 9 -9 -38 -44 -59 -44 -27 0 -50 -44 -50 -95 0 -25 -5 -45 -10 -45 -6 0 -10 -15 -10 -32 1 -51 -24 -161 -37 -166 -9 -2 -13 6 -12 25 0 37 24 169 37 211 15 46 -4 30 -29 -26 -18 -42 -20 -60 -16 -165 2 -69 9 -123 16 -130 6 -6 11 -18 11 -27 0 -23 29 -80 41 -80 5 0 18 9 29 20 11 11 25 20 30 20 6 0 10 16 10 35 0 19 -4 35 -10 35 -5 0 -10 5 -10 10 0 11 -39 70 -52 80 -9 7 -3 41 11 69 6 11 11 24 10 28 -1 4 -1 14 0 21 2 21 50 -20 51 -42 0 -11 5 -34 12 -52 9 -26 9 -39 0 -60 -8 -16 -9 -31 -4 -38 5 -6 12 -80 14 -164 5 -141 3 -155 -15 -178 -21 -28 -16 -44 8 -24 13 10 15 9 15 -9 0 -24 -28 -40 -39 -22 -5 8 -21 4 -55 -15 -37 -21 -56 -25 -89 -22 -59 7 -117 44 -117 73 0 13 -4 27 -10 30 -5 3 -10 26 -10 49 0 35 5 47 24 59 13 9 30 23 39 31 14 14 16 14 22 -1 3 -10 3 -14 -1 -10 -12 12 -44 -62 -44 -104 0 -50 22 -49 28 2 5 52 41 127 52 110 8 -15 4 -37 -12 -58 -12 -16 -1 -53 16 -53 8 0 19 -7 26 -15 19 -23 -16 -32 -39 -11 -11 10 -22 13 -25 8 -13 -21 24 -34 84 -30 42 3 60 1 60 -8 0 -25 -91 -31 -134 -9 -32 17 -46 19 -46 7 0 -15 70 -42 110 -42 22 0 40 4 40 8 0 4 15 13 33 21 18 7 26 15 19 18 -8 3 -1 14 20 31 36 29 48 62 23 62 -8 0 -15 -5 -15 -11 0 -23 -44 -50 -74 -47 -27 3 -31 8 -43 53 -16 63 -16 65 2 65 8 0 15 -9 15 -19 0 -11 5 -23 10 -26 6 -3 10 -15 10 -25 0 -33 19 -32 50 2 35 37 38 52 11 43 -11 -3 -22 -1 -26 5 -3 5 -15 10 -25 10 -10 0 -22 9 -25 20 -4 13 -18 23 -36 27 -16 3 -32 9 -35 14 -6 11 -53 -7 -79 -30 -29 -26 -45 -34 -45 -21 0 15 66 77 90 85 11 4 20 11 20 16 0 5 9 9 19 9 14 0 18 -5 14 -19 -3 -13 2 -21 17 -26 30 -10 32 -3 15 38 -8 20 -15 48 -15 62 0 14 -5 25 -10 25 -7 0 -7 6 0 19 15 28 12 35 -6 16 -11 -11 -14 -25 -10 -45 3 -20 1 -30 -6 -30 -7 0 -3 -7 8 -15 17 -13 17 -14 2 -15 -9 0 -20 5 -23 10 -4 6 -11 8 -16 4 -5 -3 -7 -10 -4 -15 4 -5 -1 -9 -9 -9 -10 0 -13 6 -9 17 4 11 3 14 -5 9 -7 -4 -12 -16 -12 -27 0 -10 -7 -19 -15 -19 -8 0 -15 -6 -15 -14 0 -8 -6 -16 -13 -19 -9 -3 -12 9 -12 44 0 27 3 49 8 49 4 0 7 -5 7 -11 0 -5 5 -7 11 -4 6 5 5 11 -6 18 -8 7 -17 30 -19 53 l-3 40 46 3 c63 3 65 11 3 13 -29 0 -58 1 -64 2 -10 1 -12 -31 -9 -136 3 -132 2 -138 -17 -138 -16 0 -21 9 -26 48 -9 73 -6 381 5 387 17 11 9 23 -11 18 -11 -3 -20 -9 -20 -13 0 -5 -13 -11 -30 -15 -16 -4 -32 -11 -35 -16 -4 -5 -12 -9 -20 -9 -8 0 -36 -13 -62 -28 -27 -16 -67 -32 -90 -35 -45 -8 -146 8 -151 23 -2 6 -9 10 -15 10 -20 1 -52 33 -70 69 -20 39 -23 141 -6 174 25 47 72 98 107 114 40 19 150 22 161 5 9 -14 184 -102 203 -102 9 0 19 -4 22 -9 10 -15 74 -22 136 -15 79 9 77 24 -2 23 -61 -1 -118 8 -128 20 -9 10 -93 67 -164 111 -40 24 -83 42 -102 43 -19 1 -34 6 -34 10 0 5 -4 6 -9 3 -4 -3 -7 11 -6 30 1 23 -4 38 -13 41 -33 13 -141 118 -152 149 -6 14 -20 26 -37 29 -15 4 -37 11 -48 16 -69 31 -305 54 -305 29 0 -5 6 -7 14 -4 8 3 17 1 21 -5 3 -7 -2 -11 -14 -11 -11 0 -22 4 -26 9 -8 15 -60 -7 -91 -37 -51 -51 -62 -115 -31 -174 23 -42 58 -55 128 -45 57 7 71 22 67 71 -2 34 -7 42 -25 44 -13 2 -23 8 -23 13 0 14 -30 11 -46 -6 -9 -8 -12 -19 -9 -25 8 -13 35 -13 35 0 0 6 7 10 15 10 8 0 15 -6 15 -14 0 -8 5 -16 11 -18 5 -2 7 -11 3 -22 -6 -16 -8 -16 -16 -2 -5 9 -18 16 -29 16 -11 0 -17 -4 -14 -10 3 -5 3 -10 -2 -10 -4 0 -18 -3 -30 -6 -14 -4 -23 -2 -23 5 0 5 6 8 14 5 8 -3 17 -1 20 4 3 6 -1 12 -9 16 -20 7 -19 50 2 67 23 19 94 19 113 0 29 -29 41 -70 29 -94 -19 -36 -51 -67 -70 -67 -10 0 -21 -4 -24 -10 -19 -31 -123 10 -158 64 -19 29 -24 131 -6 141 6 4 8 14 4 23 -3 9 -3 13 1 10 3 -4 20 8 38 26 17 18 42 37 56 41 14 4 31 12 38 18 22 17 210 12 280 -8 34 -10 65 -22 68 -26 8 -14 24 -10 24 6 0 9 9 15 25 15 14 0 25 5 25 10 0 6 -11 10 -24 10 -13 0 -33 3 -43 6 -15 5 -15 4 -3 -5 8 -5 11 -13 7 -17 -4 -4 -16 1 -26 10 -11 10 -25 15 -30 11 -6 -3 -11 1 -11 10 0 9 5 13 10 10 6 -3 10 -2 10 4 0 10 39 27 54 23 4 -2 14 2 22 9 7 6 19 7 25 3 8 -4 9 -3 5 4 -4 7 -1 12 9 12 10 0 13 -5 9 -12 -5 -8 -2 -9 9 -5 24 9 47 -2 47 -23 0 -13 6 -17 23 -14 12 2 16 2 9 -2 -6 -3 -10 -9 -8 -13 8 -12 -28 -9 -36 3 -4 6 -11 7 -15 2 -4 -5 -2 -11 5 -13 24 -9 12 -25 -15 -20 -24 4 -25 3 -11 -7 11 -8 14 -17 8 -27 -8 -12 -12 -11 -24 6 -8 11 -18 16 -22 12 -5 -4 -3 -16 4 -25 7 -9 15 -25 18 -34 8 -22 24 -24 24 -3 0 9 5 21 10 28 6 7 19 23 30 37 l19 25 1 -23 c0 -40 25 -19 31 26 3 23 8 45 12 49 9 8 79 -15 90 -31 5 -6 6 -2 2 9 -4 11 -8 27 -8 35 0 8 -5 18 -11 22 -6 4 -8 9 -6 12 12 11 41 -25 47 -58 5 -32 3 -36 -15 -36 -11 0 -24 -4 -27 -10 -11 -18 -23 -11 -18 10 3 11 1 20 -5 20 -15 0 -42 -41 -42 -62 0 -10 -4 -18 -9 -18 -5 0 -8 -8 -6 -17 1 -10 0 -12 -2 -5 -3 6 -18 12 -34 12 -38 0 -39 -26 0 -35 17 -3 33 -16 40 -31 19 -42 13 -49 -17 -21 -22 21 -31 24 -40 15 -9 -9 -12 -7 -12 10 0 12 -4 22 -10 22 -5 0 -10 -8 -10 -19 0 -19 20 -41 42 -45 7 -2 20 -6 29 -10 9 -4 22 -6 29 -4 7 2 14 -2 17 -9 2 -6 -4 -13 -13 -15 -14 -2 -11 -9 15 -37 17 -18 31 -37 31 -41 0 -10 48 -22 60 -15 5 3 11 1 15 -5 3 -5 17 -10 31 -10 13 0 24 -4 24 -10 0 -5 -5 -10 -12 -10 -23 0 156 -114 207 -132 56 -20 89 -23 80 -8 -3 6 -12 10 -20 10 -8 0 -39 15 -71 34 -57 35 -94 80 -94 116 0 11 -11 38 -25 60 -22 36 -25 50 -24 137 0 54 4 107 8 118 5 11 3 27 -2 36 -16 26 16 81 94 160 39 38 87 79 107 89 20 11 31 20 24 20 -19 0 -14 21 11 44 22 22 47 29 47 14z m-370 -28 c0 -13 -5 -18 -15 -14 -8 4 -15 12 -15 20 0 8 7 14 15 14 8 0 15 -9 15 -20z m134 -48 c4 -2 2 -8 -5 -13 -10 -6 -11 -9 -1 -9 6 0 12 -7 12 -16 0 -8 -4 -12 -10 -9 -5 3 -10 1 -10 -4 0 -6 4 -11 8 -11 12 0 12 -39 0 -46 -7 -4 -8 -2 -4 5 4 6 1 22 -8 35 -8 13 -12 33 -9 45 3 12 1 21 -6 21 -6 0 -11 4 -11 10 0 8 21 5 44 -8z m506 -2 c0 -5 -5 -10 -11 -10 -5 0 -7 5 -4 10 3 6 8 10 11 10 2 0 4 -4 4 -10z m-220 -19 c0 -12 -29 -23 -41 -15 -18 10 -9 24 16 24 14 0 25 -4 25 -9z m-413 -57 c-9 -10 -38 16 -31 28 4 6 13 4 22 -6 9 -8 13 -19 9 -22z m620 -34 c24 -7 45 -21 48 -31 3 -10 11 -17 18 -15 7 1 9 1 5 -1 -16 -9 -8 -22 9 -16 12 5 15 2 10 -10 -3 -9 0 -23 8 -31 11 -11 12 -15 2 -19 -9 -3 -9 -7 2 -20 11 -14 11 -18 -3 -23 -9 -3 -16 -14 -16 -23 0 -13 2 -13 9 -2 5 7 11 9 13 5 3 -5 -3 -22 -13 -39 -11 -16 -19 -28 -20 -25 -6 20 -5 67 2 75 15 20 13 62 -3 87 -14 20 -27 26 -75 31 -32 3 -59 11 -61 17 -2 5 -8 10 -14 10 -7 0 -7 -4 0 -13 12 -14 0 -28 -52 -62 -34 -22 -33 -13 2 23 15 16 26 35 24 42 -3 7 4 19 14 27 15 11 16 15 5 22 -20 13 35 7 86 -9z m-829 -26 c84 -25 122 -51 122 -86 0 -14 -8 -10 -35 16 -32 31 -99 56 -113 42 -3 -3 2 -6 11 -6 18 0 77 -32 77 -42 0 -16 -23 -19 -38 -5 -25 23 -122 59 -146 54 -16 -3 -14 -5 7 -6 30 -1 29 -21 -1 -21 -9 0 -30 -7 -46 -15 -16 -9 -32 -12 -35 -9 -3 4 -1 9 5 11 6 2 20 10 30 18 15 12 16 14 3 15 -19 0 -66 -49 -71 -74 -5 -31 -28 -32 -28 -1 0 52 98 119 178 124 13 0 49 -6 80 -15z m482 2 c0 -2 -7 -7 -16 -10 -8 -3 -12 -2 -9 4 6 10 25 14 25 6z m-695 -16 c-4 -6 -11 -8 -16 -5 -5 4 -14 -5 -21 -19 -13 -29 -28 -34 -28 -9 0 9 3 13 7 10 3 -4 12 2 20 13 14 20 50 29 38 10z m389 -156 c9 -3 13 -10 10 -16 -3 -5 2 -18 11 -28 17 -18 16 -19 -8 -14 -15 2 -32 -2 -41 -11 -8 -9 -19 -15 -23 -14 -24 4 -34 -3 -31 -23 2 -16 11 -24 28 -26 14 -2 30 -8 36 -13 7 -6 16 -4 23 5 10 12 9 17 -8 28 -26 16 -27 28 -2 28 30 0 43 -24 35 -65 -6 -32 -4 -36 12 -33 15 2 19 -3 19 -29 1 -30 -2 -33 -30 -31 -16 1 -42 -2 -57 -6 -19 -6 -28 -4 -28 3 0 6 -7 11 -15 11 -8 0 -15 5 -15 10 0 6 6 10 13 10 8 0 7 4 -3 10 -13 8 -13 10 1 10 9 0 19 -7 23 -15 3 -8 11 -15 18 -15 9 0 9 3 -2 11 -11 8 -4 9 29 6 l43 -5 -33 22 c-19 12 -50 27 -69 32 -31 8 -35 14 -38 44 -2 25 3 42 19 59 19 20 23 21 31 8 5 -9 15 -14 24 -10 12 4 11 8 -6 20 -20 14 -29 40 -10 28 6 -3 10 -1 10 4 0 12 11 14 34 5z m-69 -14 c3 -5 -1 -10 -10 -10 -9 0 -13 5 -10 10 3 6 8 10 10 10 2 0 7 -4 10 -10z m-224 -59 c20 -16 21 -20 9 -33 -18 -18 -60 -30 -60 -17 0 16 -26 10 -45 -11 -19 -21 -14 -50 10 -50 16 0 21 -25 7 -34 -5 -3 -18 2 -30 10 -23 16 -31 77 -12 89 6 3 10 17 10 31 0 21 4 24 20 19 11 -3 28 -2 37 4 24 14 27 14 54 -8z m259 -41 c0 -5 -2 -10 -4 -10 -3 0 -8 5 -11 10 -3 6 -1 10 4 10 6 0 11 -4 11 -10z m153 -141 c4 -15 2 -18 -7 -10 -7 6 -15 9 -17 7 -2 -2 -5 7 -5 20 -2 19 1 22 11 14 7 -6 15 -20 18 -31z m-753 21 c0 -5 -8 -10 -17 -10 -15 0 -16 2 -3 10 19 12 20 12 20 0z m781 -97 c6 -18 15 -33 21 -33 6 0 8 -3 5 -7 -4 -3 -15 0 -24 8 -10 8 -30 21 -46 29 -20 10 -24 16 -15 22 10 6 10 10 -2 18 -8 5 -23 10 -32 10 -10 0 -18 4 -18 9 0 19 36 17 67 -4 19 -11 38 -34 44 -52z m-127 -30 c16 -8 41 -26 55 -40 l26 -25 -40 24 c-22 14 -64 33 -92 43 -29 11 -53 22 -53 26 0 9 66 -9 104 -28z m127 -80 c13 -17 13 -17 -6 -3 -11 8 -22 16 -24 17 -2 2 0 3 6 3 6 0 17 -8 24 -17z m-223 -35 c-9 -7 -5 -8 14 -4 16 4 28 1 30 -6 2 -6 15 -13 28 -15 12 -2 28 -10 34 -19 6 -8 34 -21 61 -28 33 -9 49 -18 47 -27 -3 -11 -1 -12 9 -1 18 17 32 15 25 -3 -3 -8 4 -21 17 -30 22 -15 18 -19 -17 -15 -12 1 -16 -2 -10 -11 5 -9 2 -10 -11 -5 -11 4 -26 0 -38 -11 -15 -13 -18 -14 -13 -3 4 8 1 7 -8 -4 -8 -10 -29 -19 -45 -20 -17 0 -31 -4 -31 -7 0 -13 -71 -20 -86 -8 -11 9 -14 9 -14 -1 0 -12 -57 -12 -75 1 -10 7 -17 9 -34 9 -5 0 -19 16 -31 35 -30 48 -24 114 13 151 21 20 32 25 53 20 14 -4 23 -3 20 2 -3 5 13 9 35 9 28 0 37 -3 27 -9z m692 -34 c0 -3 -9 -13 -21 -23 -19 -15 -20 -20 -9 -71 23 -113 23 -110 7 -110 -30 0 -52 171 -25 198 12 12 48 17 48 6z m-395 -74 c-21 -24 -35 -26 -35 -6 0 8 10 17 23 19 12 2 24 5 26 6 2 0 -4 -8 -14 -19z m70 11 c-5 -9 -62 -41 -72 -41 -7 0 21 24 42 37 24 15 38 16 30 4z m145 -21 c0 -5 -4 -10 -10 -10 -5 0 -10 5 -10 10 0 6 5 10 10 10 6 0 10 -4 10 -10z m-696 -159 c-8 -9 -34 10 -34 25 0 16 2 16 19 -2 10 -10 17 -21 15 -23z m444 -8 l-3 -48 -57 0 c-31 0 -60 -3 -64 -7 -4 -5 27 -8 69 -8 45 0 77 -4 77 -10 0 -10 -13 -14 -42 -11 -26 3 -22 -17 4 -21 20 -3 22 -8 20 -48 -1 -25 2 -72 7 -105 10 -71 0 -101 -28 -85 -14 7 -20 6 -24 -4 -4 -9 -14 -12 -26 -9 -13 3 -21 1 -21 -7 0 -8 -9 -11 -25 -8 -24 5 -36 -7 -14 -14 6 -2 -2 -10 -17 -18 -39 -20 -73 -60 -80 -92 -4 -15 -13 -33 -20 -39 -16 -13 -19 -33 -4 -24 6 4 10 -13 10 -44 0 -28 -4 -51 -10 -51 -5 0 -10 9 -10 20 0 11 -4 20 -10 20 -5 0 -10 5 -10 11 0 6 -11 25 -25 43 -14 18 -22 36 -18 40 4 4 0 4 -9 1 -11 -5 -28 5 -52 28 -37 37 -36 40 16 66 18 9 31 29 42 61 14 43 14 52 1 83 -10 24 -24 38 -46 46 -38 13 -42 13 -35 3 2 -4 -11 -9 -30 -10 -32 -2 -35 0 -29 18 7 22 1 23 -30 10 -17 -7 -17 -9 -2 -9 9 -1 17 -3 17 -5 0 -2 3 -12 7 -22 5 -13 3 -16 -9 -11 -23 8 -30 -3 -13 -20 22 -21 18 -29 -12 -28 -41 1 -83 25 -83 48 0 17 -2 18 -17 6 -15 -12 -16 -12 -11 8 3 13 2 21 -4 20 -6 -1 -13 4 -15 11 -3 8 1 10 14 6 17 -6 17 -6 -1 8 -15 12 -17 22 -12 52 5 28 16 42 48 62 38 24 43 25 76 12 43 -16 54 -38 18 -38 -13 0 -28 5 -31 10 -3 6 -16 10 -28 10 -26 0 -75 -35 -64 -46 4 -4 7 -2 7 4 0 7 5 12 10 12 6 0 10 -7 10 -15 0 -7 7 -18 16 -23 13 -8 14 -13 4 -31 -6 -13 -9 -25 -7 -28 3 -2 8 5 12 16 7 22 16 26 29 14 14 -15 81 -8 100 9 10 10 23 15 28 12 4 -3 9 4 9 15 1 12 2 36 3 54 2 30 -16 73 -39 90 -5 4 8 5 30 1 22 -4 42 -11 43 -15 2 -5 12 -9 22 -9 10 0 22 -4 25 -10 3 -5 29 -10 56 -10 34 0 48 4 43 11 -4 7 2 7 17 -1 13 -7 21 -9 17 -5 -9 9 20 34 40 35 7 0 22 9 34 19 19 18 22 19 45 4 13 -9 26 -13 30 -10 3 4 -2 9 -11 13 -32 12 -20 23 37 33 4 0 7 -20 5 -46z m-502 -48 c17 -16 14 -18 -10 -9 -9 3 -16 10 -16 15 0 13 9 11 26 -6z m876 -107 c21 -21 15 -41 -18 -59 -21 -11 -27 -11 -33 0 -5 7 -6 22 -4 32 3 11 -1 21 -11 25 -19 7 -21 49 -3 68 10 12 15 8 32 -18 11 -17 28 -39 37 -48z m-722 -108 c0 -5 -7 -10 -15 -10 -8 0 -15 5 -15 10 0 6 7 10 15 10 8 0 15 -4 15 -10z m390 -110 c0 -5 -12 -12 -27 -16 -86 -19 -89 -22 -25 -23 46 -1 62 2 62 13 0 7 7 19 16 27 14 12 15 8 9 -33 -5 -36 -3 -53 11 -77 14 -24 15 -33 5 -44 -8 -10 -9 -17 -1 -22 6 -4 10 -84 10 -229 0 -150 4 -226 11 -233 17 -17 3 -30 -28 -26 l-28 5 -1 284 c-1 209 -5 288 -14 299 -9 11 -33 15 -85 15 -63 0 -76 -3 -99 -25 -27 -25 -33 -54 -15 -72 17 -17 1 -37 -17 -22 -23 19 -18 82 9 106 30 27 95 63 113 63 8 0 14 5 14 10 0 6 18 10 40 10 22 0 40 -4 40 -10z m-520 -20 c0 -5 -11 -10 -25 -10 -14 0 -25 5 -25 10 0 6 11 10 25 10 14 0 25 -4 25 -10z m820 0 c0 -5 -4 -10 -10 -10 -5 0 -10 5 -10 10 0 6 5 10 10 10 6 0 10 -4 10 -10z m-360 -90 c0 -10 -5 -21 -10 -23 -6 -3 -5 -4 2 -3 7 1 14 12 16 24 4 28 32 29 32 1 0 -11 -4 -17 -10 -14 -5 3 -10 1 -10 -4 0 -6 5 -11 11 -11 5 0 8 -4 4 -9 -3 -5 -1 -12 4 -15 5 -3 9 -42 10 -87 1 -45 4 -85 6 -90 3 -4 1 -10 -4 -13 -5 -3 -7 -15 -4 -26 7 -28 -4 -25 -33 9 -21 26 -84 48 -84 30 0 -4 -7 -9 -15 -13 -12 -4 -14 4 -11 49 2 30 1 53 -3 53 -10 -3 -51 26 -51 36 0 5 7 14 15 20 18 13 34 83 17 72 -8 -5 -10 -2 -6 8 3 9 10 14 14 11 5 -3 11 -1 14 4 3 4 26 9 51 9 38 1 45 -2 45 -18z m-216 -205 c-4 -8 -8 -15 -10 -15 -2 0 -4 7 -4 15 0 8 4 15 10 15 5 0 7 -7 4 -15z m-674 -5 c0 -5 -2 -10 -4 -10 -3 0 -8 5 -11 10 -3 6 -1 10 4 10 6 0 11 -4 11 -10z m446 -55 c-11 -8 -22 -12 -25 -9 -6 6 19 24 34 24 6 -1 1 -7 -9 -15z m823 -206 c-19 -12 -24 -2 -8 17 9 11 14 13 17 4 3 -7 -2 -16 -9 -21z m-279 -171 c0 -23 -6 -23 -37 2 l-25 19 31 -2 c22 -1 31 -7 31 -19z m254 -1 c-8 -22 -64 -54 -129 -72 -98 -29 -137 -57 -166 -119 -8 -16 -20 -31 -26 -34 -18 -5 -16 33 2 48 8 7 15 19 15 26 0 21 91 83 133 90 20 4 40 11 43 15 3 5 13 9 22 9 9 0 37 13 62 29 49 31 54 32 44 8z m-74 -71 c0 -2 3 -12 7 -22 4 -11 3 -15 -4 -11 -16 10 -35 -19 -31 -49 2 -15 12 -32 23 -38 11 -6 23 -15 26 -20 4 -4 16 -3 27 3 30 16 41 14 35 -9 -12 -44 -133 -7 -133 40 0 10 -5 20 -10 22 -11 3 39 88 52 88 5 0 8 -2 8 -4z m-242 -54 c6 -18 -15 -14 -22 4 -4 10 -1 14 6 12 6 -2 14 -10 16 -16z m393 -153 c-28 -26 -40 -18 -13 9 11 11 19 22 18 25 -2 2 2 1 8 -4 6 -6 2 -16 -13 -30z"/> <path d="M2300 3915 c-7 -9 -10 -18 -7 -21 10 -11 37 5 37 21 0 19 -14 19 -30 0z"/> <path d="M2148 3758 c-61 -61 -88 -99 -87 -123 1 -17 2 -17 6 -2 2 9 9 17 14 17 5 0 9 6 9 14 0 18 98 116 116 116 8 0 14 5 14 10 0 22 -32 8 -72 -32z"/> <path d="M2528 3654 c-22 -13 -21 -13 20 -14 30 0 42 -4 42 -14 0 -19 19 -31 31 -19 30 30 -51 70 -93 47z"/> <path d="M1706 3634 c-9 -8 -16 -20 -16 -26 0 -6 1 -9 3 -7 1 2 11 14 21 27 22 25 16 30 -8 6z"/> <path d="M2510 3570 c-8 -5 -12 -12 -9 -15 4 -3 12 1 19 10 14 17 11 19 -10 5z"/> <path d="M1795 3162 c-62 -8 -49 -22 20 -22 60 0 80 -5 150 -39 106 -52 154 -66 168 -52 8 8 4 11 -16 11 -15 0 -35 4 -45 10 -9 5 -39 19 -67 30 -27 12 -68 30 -90 40 -48 22 -79 28 -120 22z"/> <path d="M2363 3083 c9 -2 23 -2 30 0 6 3 -1 5 -18 5 -16 0 -22 -2 -12 -5z"/> <path d="M2241 2884 c0 -11 3 -14 6 -6 3 7 2 16 -1 19 -3 4 -6 -2 -5 -13z"/> <path d="M2470 2775 c-8 -9 -8 -15 -2 -15 6 0 14 -9 17 -20 3 -11 11 -20 16 -20 13 0 10 32 -5 53 -12 15 -15 15 -26 2z"/> <path d="M2332 2713 c4 -22 24 -27 31 -9 3 8 -2 16 -14 19 -15 4 -19 1 -17 -10z"/> <path d="M2510 2559 c0 -7 -8 -18 -17 -25 -17 -12 -16 -13 5 -14 17 0 22 6 22 25 0 14 -2 25 -5 25 -3 0 -5 -5 -5 -11z"/> <path d="M2420 2512 c0 -14 28 -35 66 -48 31 -11 34 -10 34 7 0 12 -7 19 -18 19 -10 0 -22 4 -27 9 -16 14 -55 23 -55 13z"/> <path d="M2350 2102 c0 -7 5 -12 11 -12 7 0 9 -10 5 -25 -8 -30 -1 -33 13 -6 8 14 6 23 -9 36 -12 10 -20 13 -20 7z"/> <path d="M2331 2064 c0 -11 3 -14 6 -6 3 7 2 16 -1 19 -3 4 -6 -2 -5 -13z"/> <path d="M2251 2024 c0 -11 3 -14 6 -6 3 7 2 16 -1 19 -3 4 -6 -2 -5 -13z"/> <path d="M2476 1941 c-4 -7 -5 -15 -2 -18 9 -9 19 4 14 18 -4 11 -6 11 -12 0z"/> <path d="M2535 3750 c-3 -5 -1 -10 4 -10 6 0 11 5 11 10 0 6 -2 10 -4 10 -3 0 -8 -4 -11 -10z"/> <path d="M2587 3729 c7 -7 15 -10 18 -7 3 3 -2 9 -12 12 -14 6 -15 5 -6 -5z"/> <path d="M1599 3474 c-12 -14 -11 -16 5 -13 11 2 21 10 24 17 5 17 -13 15 -29 -4z"/> <path d="M2040 3240 c0 -5 7 -7 15 -4 8 4 15 8 15 10 0 2 -7 4 -15 4 -8 0 -15 -4 -15 -10z"/> <path d="M1757 3053 c-4 -3 -7 -11 -7 -17 0 -6 5 -5 12 2 6 6 9 14 7 17 -3 3 -9 2 -12 -2z"/> <path d="M1880 3040 c0 -5 5 -10 11 -10 5 0 7 5 4 10 -3 6 -8 10 -11 10 -2 0 -4 -4 -4 -10z"/> <path d="M1720 3036 c0 -2 8 -10 18 -17 15 -13 16 -12 3 4 -13 16 -21 21 -21 13z"/> <path d="M1717 2959 c7 -7 15 -10 18 -7 3 3 -2 9 -12 12 -14 6 -15 5 -6 -5z"/> <path d="M2018 2793 c7 -3 16 -2 19 1 4 3 -2 6 -13 5 -11 0 -14 -3 -6 -6z"/> <path d="M1737 2774 c-4 -4 1 -13 11 -20 21 -16 32 -17 32 -3 0 5 -4 8 -9 4 -6 -3 -14 2 -18 10 -5 9 -12 13 -16 9z"/> <path d="M1950 2760 c0 -5 7 -10 16 -10 8 0 12 5 9 10 -3 6 -10 10 -16 10 -5 0 -9 -4 -9 -10z"/> <path d="M1765 2709 c-4 -6 -4 -13 -1 -16 3 -4 6 -1 6 6 0 9 22 12 80 10 43 -2 82 0 86 4 4 4 -31 7 -79 7 -50 0 -89 -4 -92 -11z"/> <path d="M1980 2710 c0 -5 5 -10 10 -10 6 0 10 5 10 10 0 6 -4 10 -10 10 -5 0 -10 -4 -10 -10z"/> <path d="M1501 2634 c0 -11 3 -14 6 -6 3 7 2 16 -1 19 -3 4 -6 -2 -5 -13z"/> <path d="M1780 2581 c0 -10 19 -25 25 -20 1 2 -3 10 -11 17 -8 7 -14 8 -14 3z"/> <path d="M1587 2509 c7 -7 15 -10 18 -7 3 3 -2 9 -12 12 -14 6 -15 5 -6 -5z"/> <path d="M2110 2489 c0 -5 5 -7 10 -4 6 3 10 8 10 11 0 2 -4 4 -10 4 -5 0 -10 -5 -10 -11z"/> <path d="M1968 2453 c6 -2 18 -2 25 0 6 3 1 5 -13 5 -14 0 -19 -2 -12 -5z"/> <path d="M1925 2430 c-3 -5 1 -10 10 -10 9 0 13 5 10 10 -3 6 -8 10 -10 10 -2 0 -7 -4 -10 -10z"/> <path d="M1761 2354 c0 -11 3 -14 6 -6 3 7 2 16 -1 19 -3 4 -6 -2 -5 -13z"/> <path d="M2010 2311 c0 -5 7 -12 16 -15 24 -9 27 -7 10 9 -17 17 -26 19 -26 6z"/> <path d="M2000 2265 c-11 -13 -10 -14 4 -9 9 3 16 10 16 15 0 13 -6 11 -20 -6z"/> <path d="M1976 2205 c4 -8 7 -15 9 -15 2 0 5 7 9 15 3 9 0 15 -9 15 -9 0 -12 -6 -9 -15z"/> <path d="M2010 2206 c0 -2 7 -7 16 -10 8 -3 12 -2 9 4 -6 10 -25 14 -25 6z"/> <path d="M2035 2120 c3 -5 8 -10 11 -10 2 0 4 5 4 10 0 6 -5 10 -11 10 -5 0 -7 -4 -4 -10z"/> <path d="M1970 4160 c0 -5 5 -10 11 -10 5 0 7 5 4 10 -3 6 -8 10 -11 10 -2 0 -4 -4 -4 -10z"/> <path d="M1920 4146 c0 -2 7 -6 15 -10 8 -3 15 -1 15 4 0 6 -7 10 -15 10 -8 0 -15 -2 -15 -4z"/> <path d="M2020 4139 c0 -5 5 -7 10 -4 6 3 10 8 10 11 0 2 -4 4 -10 4 -5 0 -10 -5 -10 -11z"/> <path d="M1835 4050 c3 -5 8 -10 11 -10 2 0 4 5 4 10 0 6 -5 10 -11 10 -5 0 -7 -4 -4 -10z"/> <path d="M1832 3994 c-7 -8 -8 -14 -3 -14 10 0 25 19 20 25 -2 1 -10 -3 -17 -11z"/> <path d="M2210 4000 c0 -5 5 -10 11 -10 5 0 7 5 4 10 -3 6 -8 10 -11 10 -2 0 -4 -4 -4 -10z"/> <path d="M2350 4000 c0 -13 18 -22 24 -11 3 5 -1 11 -9 15 -8 3 -15 1 -15 -4z"/> <path d="M2185 3970 c-3 -5 -1 -10 4 -10 6 0 11 5 11 10 0 6 -2 10 -4 10 -3 0 -8 -4 -11 -10z"/> <path d="M2237 3973 c-4 -3 -7 -11 -7 -17 0 -6 5 -5 12 2 6 6 9 14 7 17 -3 3 -9 2 -12 -2z"/> <path d="M2053 3953 c-18 -7 -16 -23 2 -23 8 0 15 7 15 15 0 8 -1 15 -2 14 -2 0 -9 -3 -15 -6z"/> <path d="M2417 3933 c-4 -3 -7 -11 -7 -17 0 -6 5 -5 12 2 6 6 9 14 7 17 -3 3 -9 2 -12 -2z"/> <path d="M2636 3914 c-9 -8 -16 -21 -16 -27 0 -13 20 -47 20 -34 0 4 10 2 22 -4 18 -10 24 -8 35 6 9 13 10 22 2 31 -6 7 -7 19 -3 25 4 7 3 9 -4 5 -6 -3 -13 -2 -17 4 -9 14 -21 12 -39 -6z m34 -23 c0 -9 5 -22 12 -29 7 -7 9 -12 4 -12 -4 0 -14 7 -23 15 -8 8 -19 13 -24 9 -5 -3 -4 6 2 20 13 27 29 26 29 -3z"/> <path d="M1754 3875 c19 -20 30 -19 47 3 13 15 12 16 -4 3 -14 -11 -21 -11 -29 -3 -7 7 -16 12 -21 12 -5 0 -2 -7 7 -15z"/> <path d="M1705 3820 c3 -5 8 -10 11 -10 2 0 4 5 4 10 0 6 -5 10 -11 10 -5 0 -7 -4 -4 -10z"/> <path d="M1460 3729 c0 -5 5 -7 10 -4 6 3 10 8 10 11 0 2 -4 4 -10 4 -5 0 -10 -5 -10 -11z"/> <path d="M2228 3693 c7 -3 16 -2 19 1 4 3 -2 6 -13 5 -11 0 -14 -3 -6 -6z"/> <path d="M1218 3623 c7 -3 16 -2 19 1 4 3 -2 6 -13 5 -11 0 -14 -3 -6 -6z"/> <path d="M2270 3600 c0 -5 5 -10 11 -10 5 0 7 5 4 10 -3 6 -8 10 -11 10 -2 0 -4 -4 -4 -10z"/> <path d="M2310 3600 c-13 -8 -12 -10 3 -10 9 0 17 5 17 10 0 12 -1 12 -20 0z"/> <path d="M2265 3560 c3 -5 8 -10 11 -10 2 0 4 5 4 10 0 6 -5 10 -11 10 -5 0 -7 -4 -4 -10z"/> <path d="M2298 3563 c7 -3 16 -2 19 1 4 3 -2 6 -13 5 -11 0 -14 -3 -6 -6z"/> <path d="M2330 3551 c0 -5 5 -13 10 -16 6 -3 10 -2 10 4 0 5 -4 13 -10 16 -5 3 -10 2 -10 -4z"/> <path d="M1400 3520 c0 -5 5 -10 11 -10 5 0 7 5 4 10 -3 6 -8 10 -11 10 -2 0 -4 -4 -4 -10z"/> <path d="M2785 3480 c3 -5 8 -10 11 -10 2 0 4 5 4 10 0 6 -5 10 -11 10 -5 0 -7 -4 -4 -10z"/> <path d="M1460 3460 c0 -5 5 -10 10 -10 6 0 10 5 10 10 0 6 -4 10 -10 10 -5 0 -10 -4 -10 -10z"/> <path d="M1180 3435 c0 -15 4 -24 10 -20 6 3 10 12 10 20 0 8 -4 17 -10 20 -6 4 -10 -5 -10 -20z"/> <path d="M1405 3450 c3 -5 8 -10 11 -10 2 0 4 5 4 10 0 6 -5 10 -11 10 -5 0 -7 -4 -4 -10z"/> <path d="M2355 3450 c3 -5 8 -10 11 -10 2 0 4 5 4 10 0 6 -5 10 -11 10 -5 0 -7 -4 -4 -10z"/> <path d="M1430 3406 c0 -2 7 -7 16 -10 8 -3 12 -2 9 4 -6 10 -25 14 -25 6z"/> <path d="M1647 3383 c-4 -3 -7 -11 -7 -17 0 -6 5 -5 12 2 6 6 9 14 7 17 -3 3 -9 2 -12 -2z"/> <path d="M1690 3370 c0 -5 5 -10 11 -10 5 0 7 5 4 10 -3 6 -8 10 -11 10 -2 0 -4 -4 -4 -10z"/> <path d="M1445 3310 c3 -5 8 -10 11 -10 2 0 4 5 4 10 0 6 -5 10 -11 10 -5 0 -7 -4 -4 -10z"/> <path d="M1421 3294 c0 -11 3 -14 6 -6 3 7 2 16 -1 19 -3 4 -6 -2 -5 -13z"/> <path d="M1491 3294 c0 -11 3 -14 6 -6 3 7 2 16 -1 19 -3 4 -6 -2 -5 -13z"/> <path d="M1516 3263 c-6 -14 -5 -15 5 -6 7 7 10 15 7 18 -3 3 -9 -2 -12 -12z"/> <path d="M1742 3259 c2 -7 10 -15 17 -17 8 -3 12 1 9 9 -2 7 -10 15 -17 17 -8 3 -12 -1 -9 -9z"/> <path d="M1700 3240 c0 -5 5 -10 11 -10 5 0 7 5 4 10 -3 6 -8 10 -11 10 -2 0 -4 -4 -4 -10z"/> <path d="M1728 3213 c7 -3 16 -2 19 1 4 3 -2 6 -13 5 -11 0 -14 -3 -6 -6z"/> <path d="M2368 3213 c6 -2 18 -2 25 0 6 3 1 5 -13 5 -14 0 -19 -2 -12 -5z"/> <path d="M1680 3200 c0 -5 5 -10 11 -10 5 0 7 5 4 10 -3 6 -8 10 -11 10 -2 0 -4 -4 -4 -10z"/> <path d="M1160 3180 c0 -5 5 -10 10 -10 6 0 10 5 10 10 0 6 -4 10 -10 10 -5 0 -10 -4 -10 -10z"/> <path d="M1560 3099 c0 -5 5 -7 10 -4 6 3 10 8 10 11 0 2 -4 4 -10 4 -5 0 -10 -5 -10 -11z"/> <path d="M2651 3094 c0 -11 3 -14 6 -6 3 7 2 16 -1 19 -3 4 -6 -2 -5 -13z"/> <path d="M2692 2960 c0 -14 2 -19 5 -12 2 6 2 18 0 25 -3 6 -5 1 -5 -13z"/> <path d="M1540 2870 c0 -5 5 -10 11 -10 5 0 7 5 4 10 -3 6 -8 10 -11 10 -2 0 -4 -4 -4 -10z"/> <path d="M1449 2852 c-15 -13 -19 -21 -11 -26 7 -4 12 -1 12 8 0 9 9 16 20 16 11 0 20 5 20 10 0 15 -15 12 -41 -8z"/> <path d="M1340 2758 c-11 -4 -20 -10 -20 -13 0 -10 69 -1 74 10 4 12 -24 14 -54 3z"/> <path d="M10 2749 c0 -7 27 -9 75 -8 41 2 75 7 75 11 0 4 -34 8 -75 8 -47 0 -75 -4 -75 -11z"/> <path d="M206 2750 c7 -7 29 -7 65 -1 l54 9 -64 1 c-44 1 -62 -2 -55 -9z"/> <path d="M360 2750 c0 -6 41 -10 104 -10 59 0 108 4 111 10 4 6 -33 10 -104 10 -67 0 -111 -4 -111 -10z"/> <path d="M600 2750 c0 -5 9 -10 20 -10 11 0 20 5 20 10 0 6 -9 10 -20 10 -11 0 -20 -4 -20 -10z"/> <path d="M650 2750 c0 -5 25 -10 55 -10 30 0 55 5 55 10 0 6 -25 10 -55 10 -30 0 -55 -4 -55 -10z"/> <path d="M770 2750 c0 -5 7 -7 15 -4 8 4 15 8 15 10 0 2 -7 4 -15 4 -8 0 -15 -4 -15 -10z"/> <path d="M815 2752 c10 -11 211 -13 252 -3 28 7 -1 9 -110 9 -82 0 -145 -3 -142 -6z"/> <path d="M1125 2749 c-5 -7 24 -9 89 -8 52 1 93 6 90 11 -8 12 -172 10 -179 -3z"/> <path d="M2635 2750 c-3 -5 -1 -10 4 -10 6 0 11 5 11 10 0 6 -2 10 -4 10 -3 0 -8 -4 -11 -10z"/> <path d="M2690 2753 c0 -5 17 -9 38 -10 27 -2 33 0 22 7 -18 11 -60 13 -60 3z"/> <path d="M2786 2752 c-6 -9 112 -8 121 2 3 3 -21 6 -55 6 -33 0 -63 -4 -66 -8z"/> <path d="M2962 2748 c23 -6 51 -6 80 0 40 9 38 10 -37 10 -70 0 -76 -1 -43 -10z"/> <path d="M3140 2750 c0 -5 9 -10 20 -10 11 0 20 5 20 10 0 6 -9 10 -20 10 -11 0 -20 -4 -20 -10z"/> <path d="M3311 2750 c9 -5 28 -6 45 0 27 8 26 8 -16 9 -32 0 -40 -2 -29 -9z"/> <path d="M3415 2750 c43 -11 185 -12 185 -2 0 5 -48 9 -107 9 -66 0 -96 -3 -78 -7z"/> <path d="M3615 2750 c8 -12 165 -10 165 2 0 4 -39 8 -86 8 -55 0 -83 -4 -79 -10z"/> <path d="M40 2711 l-45 -7 47 -4 c25 -3 44 -2 42 2 -3 4 15 9 38 11 l43 4 -40 0 c-22 0 -60 -3 -85 -6z"/> <path d="M225 2710 c19 -8 18 -9 -4 -9 -13 -1 -22 -3 -19 -6 3 -3 32 -2 64 2 51 6 55 8 29 14 -16 4 -43 7 -60 7 -25 1 -27 -1 -10 -8z"/> <path d="M468 2713 c61 -2 163 -2 225 0 61 1 11 3 -113 3 -124 0 -174 -2 -112 -3z"/> <path d="M826 2711 c-4 -5 -2 -12 3 -15 5 -4 12 -2 15 3 4 5 2 12 -3 15 -5 4 -12 2 -15 -3z"/> <path d="M975 2710 l70 -6 -70 -4 c-65 -3 -66 -4 -20 -7 27 -3 66 -1 85 3 30 5 32 8 15 14 -11 5 -49 8 -85 8 l-65 -2 70 -6z"/> <path d="M1160 2714 c60 -8 128 -8 123 -1 -2 4 -37 6 -76 6 -40 -1 -61 -3 -47 -5z"/> <path d="M2695 2711 c-12 -11 -3 -18 21 -18 16 0 21 2 14 7 -9 6 -9 9 1 13 8 3 4 4 -9 4 -13 -1 -25 -3 -27 -6z"/> <path d="M2796 2704 c-5 -13 -2 -15 16 -10 13 3 33 6 46 6 12 0 22 5 22 10 0 18 -77 12 -84 -6z"/> <path d="M3196 2703 c-6 -14 -5 -15 5 -6 7 7 10 15 7 18 -3 3 -9 -2 -12 -12z"/> <path d="M3315 2710 c3 -5 8 -10 11 -10 2 0 4 5 4 10 0 6 -5 10 -11 10 -5 0 -7 -4 -4 -10z"/> <path d="M3351 2706 c-10 -12 -8 -13 8 -9 12 3 18 9 15 14 -7 12 -10 11 -23 -5z"/> <path d="M3426 2711 c-19 -7 -19 -8 2 -13 12 -4 20 -2 17 3 -3 5 70 10 167 12 l173 3 -170 1 c-93 1 -179 -2 -189 -6z"/> <path d="M1328 2698 c9 -9 15 -9 24 0 9 9 7 12 -12 12 -19 0 -21 -3 -12 -12z"/> <path d="M2965 2700 c-4 -6 17 -10 57 -9 50 1 57 3 33 9 -44 11 -83 11 -90 0z"/> <path d="M3140 2700 c0 -5 9 -10 20 -10 11 0 20 5 20 10 0 6 -9 10 -20 10 -11 0 -20 -4 -20 -10z"/> <path d="M368 2693 c6 -2 18 -2 25 0 6 3 1 5 -13 5 -14 0 -19 -2 -12 -5z"/> <path d="M1128 2693 c6 -2 18 -2 25 0 6 3 1 5 -13 5 -14 0 -19 -2 -12 -5z"/> <path d="M1351 2524 c0 -11 3 -14 6 -6 3 7 2 16 -1 19 -3 4 -6 -2 -5 -13z"/> <path d="M1235 2460 c4 -6 11 -8 16 -5 14 9 11 15 -7 15 -8 0 -12 -5 -9 -10z"/> <path d="M1168 2443 c7 -3 16 -2 19 1 4 3 -2 6 -13 5 -11 0 -14 -3 -6 -6z"/> <path d="M2671 2424 c0 -11 3 -14 6 -6 3 7 2 16 -1 19 -3 4 -6 -2 -5 -13z"/> <path d="M1390 2370 c0 -5 5 -10 11 -10 5 0 7 5 4 10 -3 6 -8 10 -11 10 -2 0 -4 -4 -4 -10z"/> <path d="M1098 2363 c6 -2 18 -2 25 0 6 3 1 5 -13 5 -14 0 -19 -2 -12 -5z"/> <path d="M1051 2344 c0 -11 3 -14 6 -6 3 7 2 16 -1 19 -3 4 -6 -2 -5 -13z"/> <path d="M1070 2330 c0 -5 5 -10 11 -10 5 0 7 5 4 10 -3 6 -8 10 -11 10 -2 0 -4 -4 -4 -10z"/> <path d="M1606 2321 c-5 -7 9 -15 101 -60 27 -13 38 -25 61 -73 2 -5 -7 -8 -19 -8 l-23 0 22 -16 c12 -8 22 -26 22 -39 0 -13 4 -25 9 -27 4 -1 17 -20 28 -42 33 -64 36 -16 3 52 -16 33 -26 69 -24 80 4 12 -4 27 -21 43 -15 13 -34 32 -43 42 -9 9 -22 17 -29 17 -7 0 -13 5 -13 10 0 6 -9 10 -19 10 -11 0 -23 5 -26 10 -8 12 -22 13 -29 1z"/> <path d="M1468 2313 c7 -3 16 -2 19 1 4 3 -2 6 -13 5 -11 0 -14 -3 -6 -6z"/> <path d="M1230 2299 c0 -5 5 -7 10 -4 6 3 10 8 10 11 0 2 -4 4 -10 4 -5 0 -10 -5 -10 -11z"/> <path d="M1255 2280 c-8 -13 5 -13 25 0 13 8 13 10 -2 10 -9 0 -20 -4 -23 -10z"/> <path d="M1202 2235 c6 -13 16 -21 21 -18 8 5 7 8 -1 11 -7 2 -12 10 -12 18 0 8 -4 14 -10 14 -6 0 -5 -10 2 -25z"/> <path d="M1560 2256 c0 -2 6 -9 14 -15 11 -9 16 -9 22 0 4 8 3 9 -4 5 -7 -4 -12 -2 -12 3 0 6 -4 11 -10 11 -5 0 -10 -2 -10 -4z"/> <path d="M1311 2234 c0 -11 3 -14 6 -6 3 7 2 16 -1 19 -3 4 -6 -2 -5 -13z"/> <path d="M1340 2220 c0 -5 4 -10 9 -10 6 0 13 5 16 10 3 6 -1 10 -9 10 -9 0 -16 -4 -16 -10z"/> <path d="M1545 2220 c3 -5 8 -10 11 -10 2 0 4 5 4 10 0 6 -5 10 -11 10 -5 0 -7 -4 -4 -10z"/> <path d="M1610 2210 c-13 -8 -12 -10 3 -10 9 0 17 5 17 10 0 12 -1 12 -20 0z"/> <path d="M1278 2203 c7 -3 16 -2 19 1 4 3 -2 6 -13 5 -11 0 -14 -3 -6 -6z"/> <path d="M1340 2195 c0 -13 21 -35 33 -35 5 0 7 5 5 11 -2 6 -7 10 -12 9 -5 -1 -13 4 -17 12 -5 7 -9 8 -9 3z"/> <path d="M1560 2192 c0 -5 7 -15 15 -22 8 -7 15 -9 15 -6 0 4 -7 14 -15 22 -8 9 -15 11 -15 6z"/> <path d="M1690 2102 c0 -4 23 -29 51 -57 39 -39 49 -56 48 -80 -2 -47 1 -51 16 -31 25 33 17 61 -30 114 -39 43 -86 73 -85 54z"/> <path d="M1390 2079 c0 -5 5 -7 10 -4 6 3 10 8 10 11 0 2 -4 4 -10 4 -5 0 -10 -5 -10 -11z"/> <path d="M1120 2032 c0 -13 39 -32 45 -22 3 6 -1 10 -9 10 -9 0 -16 5 -16 10 0 6 -4 10 -10 10 -5 0 -10 -3 -10 -8z"/> <path d="M1392 2020 c0 -14 2 -19 5 -12 2 6 2 18 0 25 -3 6 -5 1 -5 -13z"/> <path d="M1160 1920 c0 -5 5 -10 10 -10 6 0 10 5 10 10 0 6 -4 10 -10 10 -5 0 -10 -4 -10 -10z"/> <path d="M1228 1903 c7 -3 16 -2 19 1 4 3 -2 6 -13 5 -11 0 -14 -3 -6 -6z"/> <path d="M2090 1860 c0 -5 5 -10 10 -10 6 0 10 5 10 10 0 6 -4 10 -10 10 -5 0 -10 -4 -10 -10z"/> <path d="M1637 1843 c-4 -3 -7 -11 -7 -17 0 -6 5 -5 12 2 6 6 9 14 7 17 -3 3 -9 2 -12 -2z"/> <path d="M1595 1800 c4 -6 11 -8 16 -5 14 9 11 15 -7 15 -8 0 -12 -5 -9 -10z"/> <path d="M1687 1771 c-4 -17 -3 -21 5 -13 5 5 8 16 6 23 -3 8 -7 3 -11 -10z"/> <path d="M1545 1720 c-4 -6 1 -7 12 -3 16 6 16 5 4 -10 -7 -9 -18 -14 -25 -10 -6 3 -5 0 2 -8 11 -12 15 -11 27 5 14 19 12 36 -5 36 -5 0 -12 -4 -15 -10z"/> <path d="M2540 1609 c0 -5 5 -7 10 -4 6 3 10 8 10 11 0 2 -4 4 -10 4 -5 0 -10 -5 -10 -11z"/> <path d="M1080 1601 c0 -6 4 -13 10 -16 6 -3 7 1 4 9 -7 18 -14 21 -14 7z"/> <path d="M1051 1588 c-1 -20 -14 -23 -41 -8 -16 8 -18 8 -14 -5 4 -11 0 -15 -16 -15 -13 0 -19 4 -14 12 4 7 3 8 -4 4 -9 -5 -9 -13 -2 -27 8 -14 6 -25 -6 -44 -9 -14 -12 -25 -6 -25 6 0 14 -9 17 -20 4 -11 11 -18 16 -15 5 4 9 1 9 -6 0 -8 11 -10 34 -6 19 3 37 3 40 0 10 -10 -15 -45 -29 -39 -8 3 -22 -10 -36 -32 -20 -34 -22 -35 -30 -17 -8 17 -9 17 -6 -6 2 -14 -2 -31 -10 -37 -16 -16 -17 -89 0 -121 7 -14 35 -33 72 -48 33 -13 65 -30 70 -37 16 -20 54 -29 70 -16 8 6 19 9 25 5 5 -3 10 -2 10 4 0 6 7 8 15 5 8 -4 15 -1 15 4 0 12 -38 27 -57 24 -7 -2 -13 2 -13 7 0 5 -23 9 -52 9 -32 -1 -53 3 -56 10 -2 7 -10 12 -17 12 -23 0 -85 60 -85 83 0 30 62 107 106 133 10 6 20 21 22 33 2 13 11 21 23 21 28 0 23 -19 -13 -51 -18 -16 -27 -29 -20 -29 6 0 12 3 12 8 0 4 10 12 23 17 30 14 38 103 10 126 -38 32 -68 38 -93 19 -26 -19 -20 -40 12 -40 17 0 18 2 8 15 -11 13 -8 15 14 15 40 0 36 -38 -5 -47 -22 -4 -27 -8 -17 -14 9 -6 7 -9 -8 -9 -13 0 -26 11 -35 28 -7 15 -15 30 -17 34 -2 3 10 18 25 32 28 26 93 37 93 16 0 -5 6 -10 13 -10 8 0 21 -8 30 -18 20 -22 23 -122 5 -151 -9 -15 -7 -23 12 -42 22 -23 22 -23 11 -2 -9 18 -9 29 3 50 25 49 24 113 -1 138 -13 13 -14 21 -6 34 6 10 8 23 3 30 -5 9 -9 5 -14 -12 l-6 -25 -39 19 c-22 10 -41 24 -44 31 -3 8 -6 6 -6 -4z m49 -133 c-7 -8 -17 -15 -23 -15 -5 0 -2 9 8 20 21 23 35 19 15 -5z m65 -355 c4 -6 -7 -10 -24 -10 -29 0 -41 17 -25 33 8 7 40 -8 49 -23z"/> <path d="M1449 1583 c-13 -16 -12 -17 4 -4 9 7 17 15 17 17 0 8 -8 3 -21 -13z"/> <path d="M1950 1570 c0 -6 7 -10 15 -10 8 0 15 2 15 4 0 2 -7 6 -15 10 -8 3 -15 1 -15 -4z"/> <path d="M896 1562 c-2 -4 4 -8 14 -8 10 0 16 4 14 8 -3 4 -9 8 -14 8 -5 0 -11 -4 -14 -8z"/> <path d="M1587 1550 c-18 -9 -37 -15 -43 -13 -21 7 -67 -59 -72 -103 -4 -39 -1 -46 36 -83 84 -85 196 -90 248 -12 23 35 24 44 18 106 l-7 68 39 -6 c21 -3 48 -1 59 3 14 6 16 9 4 9 -8 1 -34 10 -57 21 -43 21 -117 27 -127 10 -3 -6 4 -10 16 -10 18 0 20 -3 11 -12 -23 -23 -39 -17 -36 12 3 26 1 29 -27 28 -16 -1 -44 -9 -62 -18z m183 -18 c0 -5 -11 -18 -25 -30 -29 -25 -45 -10 -19 19 17 19 44 26 44 11z m-229 -31 c-17 -11 -30 -66 -25 -101 3 -16 1 -30 -4 -30 -9 0 -32 43 -32 61 0 19 64 103 68 90 2 -7 -1 -16 -7 -20z m119 20 c0 -5 -5 -11 -11 -13 -7 -2 10 -15 36 -29 37 -19 51 -33 61 -62 17 -48 8 -80 -12 -41 -8 14 -14 31 -14 36 0 13 -42 47 -58 48 -7 0 -10 -4 -7 -10 3 -5 1 -10 -5 -10 -7 0 -14 9 -17 20 -3 11 -12 20 -19 20 -17 0 -56 -21 -66 -35 -4 -5 -10 -6 -14 -3 -14 14 7 38 53 62 51 27 73 32 73 17z m32 -109 c7 -7 9 -12 4 -12 -4 0 0 -10 8 -22 21 -29 20 -54 -1 -63 -27 -12 -53 -13 -53 -2 0 5 -7 4 -15 -3 -8 -6 -20 -8 -26 -4 -9 5 -7 10 7 16 13 5 8 6 -13 2 -21 -3 -33 -1 -33 5 0 6 -6 11 -14 11 -19 0 -30 32 -14 41 8 5 20 1 32 -10 26 -27 66 -9 65 28 l0 26 -16 -22 c-18 -27 -29 -28 -49 -9 -12 12 -10 16 14 24 35 13 88 10 104 -6z m-142 -2 c0 -5 -5 -10 -11 -10 -5 0 -7 5 -4 10 3 6 8 10 11 10 2 0 4 -4 4 -10z"/> <path d="M1670 1340 c0 -5 7 -7 15 -4 8 4 15 8 15 10 0 2 -7 4 -15 4 -8 0 -15 -4 -15 -10z"/> <path d="M2648 1563 c7 -3 16 -2 19 1 4 3 -2 6 -13 5 -11 0 -14 -3 -6 -6z"/> <path d="M2247 1515 c-8 -8 -17 -11 -21 -8 -3 4 -6 1 -6 -5 0 -18 15 -14 35 8 21 23 14 27 -8 5z"/> <path d="M2260 1493 c-13 -15 -12 -16 4 -10 10 4 20 7 22 7 2 0 4 5 4 10 0 15 -13 12 -30 -7z"/> <path d="M1846 1472 c-13 -12 -20 -14 -23 -4 -12 32 -21 6 -16 -46 5 -55 3 -61 -25 -94 -23 -26 -28 -38 -20 -46 9 -9 7 -17 -8 -33 -19 -22 -19 -22 3 -10 14 7 24 8 28 1 8 -13 55 -13 55 0 0 6 -12 10 -26 10 -19 0 -25 4 -20 15 3 9 0 15 -9 15 -8 0 -15 3 -15 6 0 13 30 34 49 34 14 0 19 5 15 15 -7 18 17 20 34 3 10 -10 19 -8 41 5 19 11 32 14 36 7 12 -19 26 0 15 20 -5 10 -10 27 -10 37 -1 22 -40 69 -66 77 -12 4 -27 -1 -38 -12z m53 -26 c15 -18 22 -52 14 -72 -4 -12 -8 -12 -20 3 -14 17 -14 17 -9 1 6 -20 -10 -23 -33 -9 -21 14 -20 48 1 71 22 24 32 25 47 6z"/> <path d="M1856 1421 c-4 -5 -2 -20 3 -33 9 -21 10 -21 10 10 1 32 -3 39 -13 23z"/> <path d="M2560 1471 c0 -5 9 -13 20 -16 11 -3 25 -15 30 -26 9 -15 5 -24 -22 -49 -18 -16 -40 -30 -49 -30 -9 0 -20 -7 -23 -16 -5 -14 -1 -16 24 -10 45 8 83 51 84 94 1 31 -3 37 -31 49 -18 7 -33 9 -33 4z"/> <path d="M2082 1430 c0 -14 2 -19 5 -12 2 6 2 18 0 25 -3 6 -5 1 -5 -13z"/> <path d="M2065 1394 c4 -14 0 -24 -10 -28 -17 -6 -21 -36 -5 -36 6 0 10 5 10 10 0 6 7 10 15 10 18 0 20 -26 3 -37 -7 -4 -21 -6 -30 -5 -22 4 -24 -16 -3 -24 8 -4 15 -14 15 -24 0 -10 7 -23 15 -30 8 -7 15 -25 15 -41 0 -16 5 -29 11 -29 7 0 9 -10 5 -27 -8 -36 -15 -69 -22 -112 -3 -18 -9 -41 -14 -50 -5 -9 -16 -35 -24 -59 -16 -42 -16 -43 14 -95 30 -53 39 -97 20 -97 -5 0 -10 8 -10 18 0 11 -13 38 -30 60 -16 23 -30 54 -30 68 0 30 31 126 43 135 8 5 12 35 21 147 2 23 0 42 -5 42 -5 0 -9 6 -9 14 0 7 -7 19 -15 26 -8 7 -15 21 -15 31 0 10 -9 20 -19 24 -11 3 -21 13 -23 22 -2 11 -14 16 -36 17 -35 1 -45 -19 -11 -21 27 -2 88 -60 95 -90 4 -13 10 -23 15 -23 19 0 8 -69 -18 -118 -63 -115 -169 -191 -210 -149 -21 21 -8 40 18 26 39 -21 87 11 139 91 25 39 30 57 30 109 0 73 -21 111 -73 135 -34 15 -140 20 -132 5 3 -4 12 -6 19 -3 8 3 16 -4 20 -18 6 -22 7 -22 20 -5 8 10 17 14 20 9 3 -6 15 -8 26 -5 14 4 20 0 20 -11 0 -9 6 -13 13 -10 8 3 18 -1 24 -8 14 -17 22 -68 12 -68 -5 0 -9 -5 -9 -11 0 -5 4 -8 8 -5 5 3 5 -17 -1 -44 -5 -28 -14 -50 -18 -50 -5 0 -9 -7 -9 -16 0 -8 -4 -13 -9 -10 -5 3 -12 -6 -15 -19 -4 -14 -10 -23 -15 -20 -5 2 -11 -2 -15 -10 -3 -9 -19 -15 -41 -15 -50 0 -87 -39 -51 -53 9 -3 12 -15 9 -31 -5 -27 -17 -34 -28 -16 -12 19 -63 11 -79 -12 -8 -12 -13 -25 -10 -30 3 -4 0 -8 -5 -8 -6 0 -11 3 -11 8 0 4 -17 8 -37 10 -21 1 -42 7 -47 12 -6 6 -17 10 -25 10 -9 0 -27 9 -41 20 -21 16 -25 27 -26 79 -1 53 1 61 17 61 10 0 21 -4 24 -10 3 -5 12 -10 18 -10 7 0 4 5 -5 11 -25 14 -22 36 5 50 20 11 21 11 8 -5 -8 -9 -11 -20 -7 -24 4 -4 12 1 17 11 8 14 14 15 30 6 11 -6 27 -8 36 -5 8 3 20 3 26 -1 7 -5 -8 -10 -33 -13 -25 -3 -43 -9 -42 -14 2 -5 -2 -13 -10 -17 -10 -7 -6 -15 18 -38 22 -20 35 -26 45 -20 23 14 32 10 19 -8 -7 -10 4 1 24 25 21 23 42 40 47 37 5 -4 6 1 3 9 -4 11 0 16 10 16 12 0 10 7 -11 32 -53 62 -73 79 -83 73 -6 -3 -10 -2 -10 3 0 6 7 13 16 16 31 12 8 16 -25 5 -35 -12 -37 -32 -2 -37 12 -2 37 -19 56 -38 34 -34 34 -34 17 -64 -24 -41 -53 -56 -81 -39 -29 19 -26 30 7 27 37 -3 52 8 52 36 0 34 -24 49 -80 52 -49 2 -64 -5 -116 -54 -27 -25 -32 -76 -13 -129 23 -66 203 -118 330 -95 l54 10 -65 1 c-75 2 -99 11 -76 30 11 9 20 10 35 2 25 -14 98 -14 106 -1 5 8 11 8 20 0 10 -8 22 -3 52 22 21 18 40 34 42 35 2 2 1 6 -2 10 -4 3 -18 -4 -31 -16 -25 -24 -90 -46 -106 -36 -18 11 -10 26 13 24 12 -2 33 1 46 5 23 8 34 15 66 44 7 6 19 12 25 12 6 0 9 4 6 9 -4 5 8 33 26 61 18 29 34 47 36 40 3 -7 1 -15 -4 -19 -15 -10 -44 -71 -44 -91 0 -10 -5 -20 -10 -22 -6 -2 -12 -23 -14 -48 -2 -38 -9 -52 -44 -86 -36 -36 -42 -48 -42 -83 0 -23 6 -50 12 -61 14 -23 4 -38 -30 -45 -12 -2 -30 -12 -40 -21 -16 -17 -17 -17 -21 2 -4 25 -20 44 -37 44 -10 0 -9 -9 6 -35 23 -40 26 -57 8 -33 -13 15 -48 32 -48 23 0 -3 14 -18 30 -33 17 -16 30 -34 30 -41 0 -20 -27 -12 -44 14 -21 32 -25 71 -7 67 9 -2 11 3 7 14 -7 18 11 47 25 38 5 -3 9 2 9 10 0 18 52 106 62 106 12 0 10 -14 -7 -47 -20 -40 -30 -93 -17 -93 20 0 33 29 40 94 6 48 14 70 28 80 37 26 76 67 70 73 -3 3 -28 -13 -55 -35 -29 -25 -60 -42 -75 -42 -14 0 -28 -4 -31 -10 -3 -5 -19 -10 -35 -10 -16 0 -32 -5 -35 -11 -7 -10 -48 -30 -70 -34 -42 -7 -75 -19 -75 -26 0 -5 -6 -9 -14 -9 -7 0 -19 -7 -26 -15 -14 -17 -66 -20 -75 -5 -4 6 -17 3 -35 -10 -29 -20 -80 -27 -80 -11 0 5 7 16 15 24 8 8 12 17 9 20 -3 2 9 10 27 16 31 11 31 10 16 -7 -19 -21 -22 -32 -7 -32 5 0 9 6 7 13 -2 14 3 14 56 3 25 -6 42 -4 52 4 24 20 18 26 -24 22 -34 -3 -45 1 -73 30 -64 63 -72 84 -75 191 -1 63 2 97 9 97 6 0 8 -10 5 -23 -4 -12 -2 -29 3 -37 8 -12 10 -10 10 8 0 12 5 22 10 22 6 0 10 9 10 20 0 28 65 90 96 90 16 0 23 4 18 11 -4 7 0 9 13 5 23 -7 55 2 48 14 -8 12 -87 -1 -115 -19 -14 -9 -33 -25 -43 -36 -10 -11 -16 -14 -12 -7 3 6 1 12 -5 12 -7 0 -9 -8 -5 -19 3 -11 1 -23 -6 -26 -13 -9 -56 39 -65 73 -3 12 -10 22 -16 22 -5 0 -7 3 -5 8 3 4 -6 8 -19 8 -13 1 -41 10 -61 19 -20 10 -59 18 -87 19 -28 0 -59 7 -68 15 -19 16 -14 35 8 27 7 -3 16 -1 19 4 3 5 -12 7 -32 4 -28 -3 -34 -1 -23 6 10 6 11 10 3 10 -7 0 -13 6 -13 14 0 16 42 46 65 46 16 0 20 15 6 24 -14 9 -68 -25 -84 -54 -18 -30 -10 -55 29 -91 28 -26 91 -44 96 -28 4 10 90 -13 106 -28 7 -7 17 -13 22 -13 5 0 23 -21 41 -46 28 -41 31 -52 25 -93 -15 -120 -16 -122 -86 -158 -82 -43 -107 -67 -118 -120 l-10 -43 41 -11 c23 -6 56 -11 75 -11 18 0 39 -7 47 -15 13 -13 15 -12 15 6 0 12 -6 21 -15 21 -24 0 -18 45 11 73 22 22 29 24 49 15 22 -10 28 -25 15 -38 -3 -3 -14 -18 -24 -33 -17 -28 -17 -29 3 -48 11 -10 26 -19 34 -19 18 0 67 23 67 33 0 13 27 8 40 -8 13 -15 72 -12 95 5 6 4 27 10 48 14 44 8 49 26 7 26 -16 0 -30 -4 -30 -9 0 -5 -12 -11 -27 -14 l-28 -5 24 19 c13 10 29 19 37 19 8 0 14 5 14 10 0 6 11 10 26 10 14 0 46 9 71 21 25 11 54 22 64 24 11 2 23 6 27 9 5 3 9 -1 9 -9 0 -8 -2 -13 -5 -10 -6 6 -85 -103 -106 -149 -21 -45 -18 -145 5 -187 28 -49 82 -111 108 -122 14 -6 28 -14 31 -17 9 -11 121 -42 128 -36 9 10 -19 26 -45 26 -12 0 -24 4 -27 9 -3 4 -19 11 -36 14 -17 4 -37 12 -46 19 -36 29 -63 61 -59 68 3 5 -1 10 -7 13 -7 2 8 4 34 4 39 1 50 -3 62 -22 9 -13 33 -32 53 -41 21 -10 50 -30 65 -45 43 -44 142 -46 183 -4 20 21 16 52 -9 69 -31 20 -55 20 -81 0 -15 -11 -17 -18 -9 -32 6 -9 19 -19 30 -22 19 -5 32 -30 16 -30 -18 0 -61 26 -71 43 -23 37 47 99 88 78 10 -6 20 -8 23 -6 2 3 17 -8 32 -24 38 -40 30 -81 -22 -107 -20 -11 -38 -22 -40 -26 -6 -13 -67 -9 -80 4 -9 9 -12 9 -12 1 0 -19 36 -25 98 -17 31 4 71 8 87 10 94 9 151 18 155 24 3 5 22 11 43 15 32 6 37 5 37 -11 0 -11 4 -15 8 -9 4 6 29 21 55 35 81 42 205 176 183 197 -3 4 -6 -1 -6 -9 0 -26 -168 -178 -197 -178 -7 0 -13 -4 -13 -10 0 -5 -7 -10 -15 -10 -8 0 -15 5 -15 10 0 6 7 10 16 10 9 0 12 5 8 12 -4 6 -3 8 3 5 6 -4 21 5 33 18 13 14 29 25 37 25 7 0 13 4 13 9 0 5 11 12 25 15 14 4 25 11 25 16 0 14 -27 12 -33 -2 -4 -10 -8 -9 -16 2 -5 8 -13 11 -18 7 -4 -5 -1 -12 7 -17 14 -9 7 -12 -16 -9 -4 0 -10 -5 -15 -13 -13 -20 -7 33 7 60 10 21 13 21 27 7 31 -30 42 -18 39 44 -2 29 -29 61 -52 61 -9 0 -31 -5 -49 -11 -25 -9 -29 -14 -20 -25 9 -11 7 -14 -9 -14 -12 0 -24 5 -27 11 -4 6 -13 8 -21 5 -8 -3 -14 -2 -14 2 0 7 45 29 108 52 18 7 37 21 43 32 10 19 9 19 -23 2 -28 -14 -31 -15 -20 -1 9 11 10 17 2 22 -8 5 -8 11 1 21 8 10 8 14 0 14 -6 0 -11 5 -11 11 0 5 5 7 12 3 8 -5 9 -2 5 9 -3 9 -2 19 3 22 6 4 10 2 10 -2 0 -5 9 -14 20 -20 16 -11 18 -10 14 2 -4 8 -2 15 2 15 15 -1 59 -28 59 -37 1 -4 7 -19 14 -32 20 -35 31 -81 20 -81 -5 0 -18 9 -28 19 -12 12 -21 15 -23 9 -3 -7 -9 -8 -16 -4 -17 10 -3 36 22 37 20 0 20 1 1 8 -14 6 -23 4 -29 -8 -5 -9 -14 -19 -20 -23 -7 -4 2 -20 23 -40 19 -18 38 -45 43 -60 14 -39 25 -35 40 15 16 56 17 139 1 133 -20 -8 -38 23 -26 43 8 13 7 22 -6 36 -18 21 -61 49 -61 39 0 -9 24 -30 43 -37 9 -3 17 -11 17 -17 0 -14 0 -14 -54 15 -57 30 -57 30 -84 5 -17 -17 -22 -32 -22 -75 0 -53 -1 -55 -27 -55 -32 1 -55 16 -71 47 -36 67 17 139 116 158 57 11 34 24 -41 23 -69 0 -76 2 -125 37 -49 35 -64 55 -42 55 6 0 10 5 10 12 0 25 51 78 76 78 13 0 24 -4 24 -10 0 -5 -7 -10 -14 -10 -16 0 -66 -60 -66 -78 0 -6 10 -17 22 -23 13 -7 29 -18 36 -26 7 -7 19 -13 25 -13 7 1 -6 16 -27 34 l-39 33 46 44 c25 24 54 45 64 47 43 8 63 31 63 73 0 54 -14 78 -57 95 -44 19 -55 11 -14 -10 27 -15 61 -61 61 -83 0 -4 -9 -19 -20 -33 l-19 -25 -27 25 c-25 23 -26 23 -15 3 9 -18 8 -22 -7 -25 -9 -2 -29 -1 -45 3 -15 4 -25 4 -22 -1 6 -10 -23 -22 -35 -15 -5 3 -12 -10 -16 -30 -3 -19 -10 -35 -15 -35 -5 0 -9 -7 -9 -15 0 -9 -7 -18 -15 -21 -8 -4 -15 -11 -15 -16 0 -6 6 -8 14 -5 8 3 19 -5 26 -18 7 -13 23 -26 36 -29 13 -4 24 -11 24 -17 0 -6 -7 -9 -15 -5 -8 3 -15 1 -15 -5 0 -7 10 -9 24 -5 12 3 26 2 30 -2 4 -4 12 -8 17 -8 5 -1 12 -2 15 -3 4 0 1 -8 -6 -16 -7 -8 -16 -12 -21 -9 -5 3 -6 -1 -3 -9 3 -8 1 -18 -5 -22 -6 -3 -11 -1 -11 4 0 6 -5 11 -10 11 -7 0 -7 -6 0 -19 14 -27 13 -34 -5 -27 -8 3 -15 1 -15 -4 0 -6 7 -10 16 -10 12 0 15 -7 12 -30 -3 -22 2 -35 18 -51 13 -12 21 -26 18 -30 -3 -5 4 -9 15 -9 12 0 21 -7 21 -16 0 -8 -4 -13 -8 -10 -4 2 -14 1 -21 -4 -11 -6 -11 -12 3 -31 9 -13 19 -22 22 -21 3 2 8 1 11 -2 4 -3 0 -6 -7 -6 -7 0 -11 -2 -9 -5 3 -2 20 -1 37 4 21 6 32 6 32 0 0 -6 9 -7 20 -4 12 4 20 2 20 -5 0 -6 -4 -9 -9 -5 -6 3 -10 -3 -10 -12 -1 -18 -8 -63 -11 -73 -1 -3 -2 -12 -1 -21 2 -16 -44 -44 -66 -40 -6 1 -14 -3 -18 -9 -5 -8 -11 -8 -21 0 -7 7 -19 10 -26 7 -8 -4 -7 -6 5 -6 17 -1 25 -21 8 -21 -5 0 -17 -3 -27 -7 -11 -4 -15 -3 -10 5 4 6 -2 20 -14 32 -11 11 -20 16 -20 11 0 -6 5 -13 10 -16 12 -7 14 -36 3 -33 -5 0 -16 -2 -26 -7 -9 -4 -31 -5 -47 -3 -17 3 -30 1 -30 -4 0 -4 -5 -8 -11 -8 -6 0 -1 12 10 27 21 25 27 93 9 93 -4 0 -8 6 -8 14 0 13 -57 43 -72 38 -5 -1 -8 2 -8 8 0 14 -78 -17 -112 -45 -16 -14 -25 -25 -20 -25 5 0 12 -7 16 -15 3 -9 0 -15 -10 -15 -8 0 -13 4 -10 9 4 5 -2 7 -13 4 -10 -3 -22 0 -25 6 -4 6 -16 11 -27 11 -10 0 -19 5 -19 11 0 5 5 7 10 4 6 -3 10 -2 10 3 0 5 -14 12 -30 16 -26 5 -30 9 -24 30 3 13 1 27 -5 30 -6 4 -11 17 -11 30 0 12 -11 33 -25 46 -14 13 -25 28 -25 33 0 6 3 8 6 5 3 -4 14 2 25 13 10 10 26 19 34 19 8 0 15 4 15 10 0 13 28 2 33 -13 2 -7 3 -3 1 7 -2 11 2 26 8 34 9 10 8 16 -3 24 -12 8 -12 9 1 5 8 -2 16 -11 18 -21 2 -9 19 -33 38 -51 35 -35 51 -45 38 -24 -4 7 -1 10 7 7 8 -3 13 -11 12 -17 -2 -6 2 -11 7 -11 6 0 10 5 10 11 0 6 10 9 23 7 26 -5 76 35 58 46 -6 4 -11 2 -11 -3 0 -6 -7 -11 -15 -11 -8 0 -25 -6 -36 -12 -17 -10 -23 -10 -26 0 -3 6 -11 12 -19 12 -17 0 -52 28 -65 53 -8 14 -3 26 25 58 20 21 36 34 36 28 0 -6 14 -9 33 -7 28 3 32 7 32 33 1 39 29 41 33 2 5 -39 -32 -68 -92 -71 -10 -1 -24 -9 -30 -18 -8 -13 -5 -21 13 -37 41 -36 119 -17 108 26 -4 16 -5 16 -6 1 -1 -11 -9 -18 -21 -18 -11 0 -20 -4 -20 -10 0 -15 -19 -12 -36 4 -15 16 -8 25 17 21 23 -4 87 55 94 86 5 20 0 34 -24 60 -17 18 -31 28 -31 21 0 -6 -5 -12 -11 -12 -6 0 -9 9 -6 20 3 11 0 18 -7 17 -6 -1 -11 6 -11 15 0 9 -4 20 -8 24 -11 11 -9 26 3 19 6 -3 7 1 4 9 -3 9 -1 16 6 16 6 0 8 4 5 10 -3 5 2 24 12 42 9 18 18 47 19 63 9 113 8 138 -4 142 -8 3 -9 10 -4 17 14 17 21 56 11 56 -5 0 -9 -5 -9 -11 0 -5 -5 -7 -11 -4 -6 4 -8 14 -5 22 3 8 1 11 -4 8 -6 -3 -10 1 -10 9 0 9 3 16 8 16 4 0 15 14 24 30 11 19 13 29 5 27 -7 -1 -11 8 -9 23 1 19 0 21 -7 10 -11 -16 -12 -15 -30 15 -12 19 -12 19 -6 -1z m-435 -335 c0 -6 -4 -7 -10 -4 -5 3 -10 11 -10 16 0 6 5 7 10 4 6 -3 10 -11 10 -16z m-280 -235 c0 -8 5 -12 10 -9 6 3 10 -1 10 -10 0 -8 -12 -20 -27 -26 -39 -14 -73 -57 -73 -91 0 -25 -4 -29 -22 -26 -17 2 -25 12 -29 38 -6 32 -6 33 -8 6 -1 -24 -3 -27 -16 -16 -17 14 -20 40 -4 40 5 0 7 5 3 12 -4 7 -3 8 4 4 8 -5 12 0 12 13 0 24 3 25 33 10 18 -9 20 -9 10 2 -18 18 -16 30 5 27 9 -2 16 2 15 9 -2 7 3 10 11 7 8 -3 23 3 33 14 20 21 33 19 33 -4z m646 -51 c-3 -3 1 -12 9 -20 21 -21 18 -35 -5 -28 -15 5 -20 2 -20 -14 0 -22 -32 -60 -38 -43 -2 6 6 29 17 51 10 23 15 41 10 41 -14 0 -11 38 4 43 13 4 33 -21 23 -30z m29 17 c3 -5 2 -10 -4 -10 -5 0 -13 5 -16 10 -3 6 -2 10 4 10 5 0 13 -4 16 -10z m-626 -22 c13 -20 12 -22 -1 -11 -8 7 -18 10 -21 6 -4 -3 -7 1 -7 10 0 24 13 21 29 -5z m551 -16 c0 -10 -7 -27 -15 -38 -14 -18 -15 -18 -11 8 7 44 26 66 26 30z m-520 -22 c0 -5 -7 -10 -15 -10 -8 0 -15 5 -15 10 0 6 7 10 15 10 8 0 15 -4 15 -10z m1240 -231 c0 -13 -7 -11 -30 8 -28 25 -25 37 5 17 14 -9 25 -20 25 -25z m-824 -36 c4 -21 12 -41 18 -45 15 -10 0 -22 -19 -15 -8 4 -16 19 -16 34 -1 21 -3 23 -6 8 -13 -51 -41 -58 -66 -16 -25 42 -22 50 18 45 25 -3 37 0 41 11 10 26 23 16 30 -22z m734 22 c11 -13 7 -15 -29 -15 -30 0 -41 4 -41 15 0 10 10 15 29 15 16 0 34 -7 41 -15z m-438 -162 c17 -15 25 -43 13 -43 -6 0 -55 50 -55 56 0 10 26 2 42 -13z m-107 -33 c3 -5 -1 -10 -10 -10 -9 0 -13 5 -10 10 3 6 8 10 10 10 2 0 7 -4 10 -10z"/> <path d="M1275 770 c-3 -5 -1 -10 4 -10 6 0 11 5 11 10 0 6 -2 10 -4 10 -3 0 -8 -4 -11 -10z"/> <path d="M2318 1403 c7 -3 16 -2 19 1 4 3 -2 6 -13 5 -11 0 -14 -3 -6 -6z"/> <path d="M2430 1390 c0 -5 5 -10 11 -10 5 0 7 5 4 10 -3 6 -8 10 -11 10 -2 0 -4 -4 -4 -10z"/> <path d="M2358 1373 c7 -3 16 -2 19 1 4 3 -2 6 -13 5 -11 0 -14 -3 -6 -6z"/> <path d="M1040 1342 c0 -6 -8 -13 -19 -17 -28 -9 -45 -83 -26 -112 18 -26 54 -48 63 -37 4 4 1 9 -6 11 -23 8 -52 46 -52 66 0 11 12 35 26 54 14 19 23 37 20 40 -3 4 -6 1 -6 -5z"/> <path d="M926 1317 c3 -10 9 -15 12 -12 3 3 0 11 -7 18 -10 9 -11 8 -5 -6z"/> <path d="M2145 1320 c3 -5 8 -10 11 -10 2 0 4 5 4 10 0 6 -5 10 -11 10 -5 0 -7 -4 -4 -10z"/> <path d="M2645 1320 c-3 -5 -1 -10 4 -10 6 0 11 5 11 10 0 6 -2 10 -4 10 -3 0 -8 -4 -11 -10z"/> <path d="M1085 1290 c-10 -11 -15 -20 -12 -20 4 0 16 9 27 20 11 11 16 20 12 20 -5 0 -17 -9 -27 -20z"/> <path d="M1130 1301 c0 -5 6 -11 13 -14 9 -3 9 -8 -2 -21 -20 -24 -8 -30 14 -6 16 17 16 21 2 35 -18 17 -27 19 -27 6z"/> <path d="M2675 1280 c10 -11 20 -20 22 -20 2 0 -2 9 -9 20 -7 11 -17 20 -22 20 -5 0 -1 -9 9 -20z"/> <path d="M2608 1273 c7 -3 16 -2 19 1 4 3 -2 6 -13 5 -11 0 -14 -3 -6 -6z"/> <path d="M2580 1261 c0 -5 7 -12 16 -15 14 -5 15 -4 4 9 -14 17 -20 19 -20 6z"/> <path d="M905 1240 c3 -5 8 -10 11 -10 2 0 4 5 4 10 0 6 -5 10 -11 10 -5 0 -7 -4 -4 -10z"/> <path d="M2528 1243 c7 -3 16 -2 19 1 4 3 -2 6 -13 5 -11 0 -14 -3 -6 -6z"/> <path d="M1151 1224 c0 -11 3 -14 6 -6 3 7 2 16 -1 19 -3 4 -6 -2 -5 -13z"/> <path d="M1952 1220 c0 -14 2 -19 5 -12 2 6 2 18 0 25 -3 6 -5 1 -5 -13z"/> <path d="M1201 1214 c0 -11 3 -14 6 -6 3 7 2 16 -1 19 -3 4 -6 -2 -5 -13z"/> <path d="M2645 1208 c5 -21 3 -27 -14 -33 -17 -5 -20 -12 -15 -33 6 -25 44 -72 44 -55 0 4 5 2 12 -5 7 -7 17 -12 23 -12 5 0 3 5 -5 11 -12 8 -9 10 12 6 19 -3 25 0 21 10 -6 15 -43 18 -43 3 0 -17 -49 24 -50 41 0 9 11 22 25 29 22 12 27 11 45 -5 11 -10 20 -24 20 -32 0 -7 5 -13 10 -13 17 0 11 36 -8 53 -10 10 -26 17 -35 17 -9 0 -23 10 -32 23 l-16 22 6 -27z"/> <path d="M2716 1215 c-3 -8 -1 -15 4 -15 6 0 10 7 10 15 0 8 -2 15 -4 15 -2 0 -6 -7 -10 -15z"/> <path d="M2418 1213 c7 -3 16 -2 19 1 4 3 -2 6 -13 5 -11 0 -14 -3 -6 -6z"/> <path d="M1566 1201 c-4 -5 -2 -12 3 -15 5 -4 12 -2 15 3 4 5 2 12 -3 15 -5 4 -12 2 -15 -3z"/> <path d="M2250 1185 c0 -14 4 -25 9 -25 4 0 6 11 3 25 -2 14 -6 25 -8 25 -2 0 -4 -11 -4 -25z"/> <path d="M2285 1199 c-4 -6 -4 -13 0 -17 4 -4 10 -1 12 6 3 6 9 10 14 6 15 -9 10 -21 -12 -27 -11 -3 -23 -15 -26 -27 -6 -21 -30 -22 -25 -1 1 7 -3 9 -9 5 -7 -4 1 -18 25 -40 20 -18 36 -38 36 -43 0 -6 9 -11 20 -11 11 0 20 5 20 11 0 5 4 8 9 4 5 -3 15 1 23 8 29 29 71 25 64 -7 -2 -6 -1 -8 1 -3 10 16 23 -6 17 -29 -3 -13 -2 -24 4 -24 15 0 22 25 15 52 -13 47 -51 65 -93 43 -70 -36 -129 -4 -76 42 49 42 190 26 223 -26 6 -10 14 -38 18 -63 6 -39 3 -48 -20 -76 -15 -18 -31 -32 -36 -32 -13 0 -108 -63 -108 -72 -1 -5 8 -8 18 -8 12 0 25 -12 33 -30 15 -35 30 -42 61 -32 25 9 57 5 57 -8 0 -5 16 -14 35 -21 19 -7 35 -17 35 -22 0 -5 17 -26 39 -48 43 -44 67 -110 57 -156 -4 -16 -3 -40 2 -53 7 -19 10 -13 15 37 6 59 0 101 -21 139 -16 30 -114 129 -124 126 -5 -1 -11 4 -14 12 -3 8 -12 12 -20 9 -8 -3 -14 -1 -14 4 0 12 -48 15 -55 3 -4 -6 -11 -8 -16 -4 -6 3 -5 12 3 22 11 13 11 15 -3 10 -9 -4 -20 1 -27 12 -9 15 -7 21 15 35 21 14 27 15 34 4 8 -13 11 -6 8 17 -1 7 22 24 32 24 3 0 6 -7 6 -15 0 -8 -3 -13 -6 -11 -3 2 -7 -14 -8 -35 0 -21 4 -39 9 -39 6 0 8 6 5 14 -13 34 9 19 77 -50 40 -41 78 -74 85 -74 7 0 10 -4 7 -9 -3 -5 1 -11 9 -15 8 -3 15 -12 15 -20 0 -8 6 -16 13 -19 16 -5 16 -165 0 -199 -11 -22 -25 -61 -24 -65 1 -7 -126 -126 -151 -140 -15 -10 -28 -21 -28 -25 0 -4 -8 -8 -18 -8 -10 0 -27 -7 -38 -15 -10 -8 -26 -15 -35 -15 -9 0 -30 -7 -45 -15 -16 -8 -45 -15 -65 -15 -19 0 -40 -5 -47 -12 -8 -8 -12 -9 -12 -1 0 8 -38 12 -116 12 -114 1 -172 14 -143 31 7 5 -5 6 -29 3 -28 -4 -53 0 -76 11 -19 9 -39 16 -45 16 -6 0 -11 5 -11 10 0 6 -7 10 -16 10 -22 0 -115 96 -136 140 -21 44 -38 139 -27 146 5 3 9 14 9 25 0 27 42 98 80 135 35 35 39 52 6 31 -36 -24 -80 -69 -95 -97 -18 -35 -86 -80 -121 -80 -17 0 -30 5 -30 10 0 6 11 10 25 10 14 0 25 4 25 8 0 4 15 13 33 21 20 8 27 15 18 18 -7 3 -16 1 -20 -5 -3 -6 -23 -13 -44 -17 -21 -4 -42 -15 -47 -25 -6 -11 -27 -20 -54 -24 -62 -10 -121 -40 -149 -78 -32 -43 -38 -63 -24 -77 8 -8 8 -11 -1 -11 -7 0 -12 -8 -12 -17 0 -13 3 -14 12 -5 18 18 38 14 38 -8 0 -16 -7 -20 -35 -20 -24 0 -35 5 -35 14 0 8 -4 18 -10 21 -6 4 -10 -7 -10 -27 0 -27 8 -38 39 -61 22 -15 42 -27 45 -27 14 0 5 21 -11 27 -19 7 -43 28 -43 37 0 14 28 4 46 -15 10 -12 30 -25 43 -31 l25 -9 -28 -14 c-16 -8 -36 -15 -45 -15 -23 0 -81 57 -81 81 0 10 -4 19 -9 19 -5 0 -9 6 -8 12 1 40 -4 68 -14 68 -15 0 -82 69 -101 105 -20 36 -48 126 -48 152 0 26 -19 43 -47 43 -13 0 -23 5 -23 11 0 8 13 10 38 7 33 -5 62 8 62 27 0 19 68 76 96 81 37 7 41 13 22 33 -11 11 -10 12 1 6 9 -5 12 -4 7 3 -10 17 -36 15 -30 -2 3 -8 -6 -20 -23 -29 -69 -36 -79 -43 -76 -54 3 -7 -5 -23 -17 -35 -22 -23 -22 -23 -16 -1 4 12 2 24 -3 28 -7 3 -8 0 -5 -9 5 -12 0 -16 -17 -16 -13 0 -32 -7 -42 -14 -16 -12 -16 -17 -5 -35 7 -12 17 -20 23 -18 17 6 35 -20 35 -52 0 -17 5 -31 10 -31 6 0 10 -11 10 -24 0 -13 5 -26 11 -28 9 -3 9 -9 0 -26 -10 -18 -9 -21 5 -15 13 5 15 1 10 -18 -3 -13 -3 -18 0 -11 11 24 26 12 20 -15 -4 -16 -3 -23 2 -16 11 16 98 -70 87 -87 -4 -6 1 -22 10 -36 9 -14 14 -32 11 -40 -3 -8 -1 -14 5 -14 6 0 7 -4 4 -10 -3 -6 1 -7 9 -4 9 3 16 2 16 -4 0 -6 -5 -12 -11 -14 -7 -2 -5 -9 5 -17 14 -12 16 -11 10 5 -5 18 -5 18 13 -1 23 -25 85 -31 103 -10 7 8 19 15 26 15 8 0 14 3 14 8 -1 16 -39 52 -55 52 -13 0 -15 4 -8 13 14 16 26 70 15 63 -10 -6 -42 29 -42 45 0 6 7 9 15 5 8 -3 14 -2 14 2 -4 26 3 41 16 36 11 -5 13 -2 8 12 -5 14 -3 16 11 11 10 -4 15 -3 11 4 -4 6 4 8 22 4 15 -3 22 -2 16 1 -7 3 -13 10 -13 15 0 6 8 5 20 -1 14 -8 20 -8 20 0 0 7 6 10 12 8 7 -3 19 1 26 9 15 14 36 8 27 -8 -4 -5 -2 -9 4 -9 5 0 12 8 14 18 4 15 5 15 6 0 1 -15 5 -15 34 -6 17 6 42 20 54 31 13 11 26 17 30 13 4 -4 1 -11 -7 -16 -8 -6 -10 -10 -4 -10 12 0 12 -55 0 -67 -3 -3 -6 -11 -6 -16 0 -6 3 -7 7 -4 9 9 67 -113 65 -138 -1 -16 1 -17 8 -5 12 20 24 5 12 -16 -7 -12 -4 -22 10 -36 25 -25 37 -14 13 12 -10 11 -15 23 -12 27 4 3 17 -6 30 -20 12 -15 28 -27 35 -27 16 0 16 -17 0 -24 -7 -3 -3 -3 10 0 13 3 29 0 37 -6 8 -7 15 -9 15 -4 0 5 4 3 9 -5 5 -8 18 -16 28 -17 37 -6 104 -27 109 -35 3 -5 23 -9 45 -9 21 0 39 -4 39 -10 0 -13 37 -13 45 0 4 6 11 8 16 4 10 -6 133 -7 164 0 11 2 40 7 64 11 25 4 58 15 75 25 17 9 37 15 45 12 9 -3 11 0 6 8 -6 10 -4 12 8 7 10 -4 17 -2 17 5 0 6 6 5 17 -3 14 -12 16 -12 11 2 -7 18 22 47 40 41 7 -2 12 1 12 8 0 6 5 8 10 5 6 -4 9 -3 8 2 -1 4 4 19 11 32 11 19 15 21 23 10 8 -11 8 -10 4 5 -5 14 -2 17 9 12 9 -3 14 -2 11 3 -3 5 1 14 8 20 11 10 15 8 19 -6 2 -10 5 -4 5 12 0 17 12 62 27 100 39 104 45 124 34 130 -5 4 -9 22 -9 41 0 19 -5 34 -11 34 -8 0 -7 5 1 15 10 13 11 18 1 28 -10 9 -11 8 -5 -7 4 -10 -16 5 -45 33 -29 29 -51 54 -49 55 1 1 15 10 31 19 41 26 33 40 -11 18 l-38 -19 -52 47 c-70 64 -68 92 9 124 29 12 40 12 77 -1 34 -11 42 -19 42 -38 0 -13 5 -24 10 -24 6 0 10 11 10 25 0 14 -4 25 -10 25 -5 0 -10 9 -10 20 0 11 -5 20 -11 20 -6 0 -8 -7 -5 -17 6 -14 4 -14 -14 2 -34 30 -92 26 -130 -10 -16 -16 -30 -23 -30 -17 0 7 4 12 8 12 5 0 14 11 20 24 6 14 19 26 29 29 10 2 9 3 -4 2 -20 -2 -23 3 -23 31 0 18 -5 36 -10 39 -6 4 -8 11 -5 16 4 5 1 9 -4 9 -6 0 -11 7 -11 16 0 9 -9 18 -20 21 -11 3 -20 9 -20 12 0 7 -37 11 -142 15 -21 1 -40 5 -44 9 -10 10 -22 9 -29 -4z"/> <path d="M931 1174 c0 -11 3 -14 6 -6 3 7 2 16 -1 19 -3 4 -6 -2 -5 -13z"/> <path d="M1275 1180 c3 -5 8 -10 11 -10 2 0 4 5 4 10 0 6 -5 10 -11 10 -5 0 -7 -4 -4 -10z"/> <path d="M1935 1180 c3 -5 8 -10 11 -10 2 0 4 5 4 10 0 6 -5 10 -11 10 -5 0 -7 -4 -4 -10z"/> <path d="M2210 1170 c0 -5 5 -10 11 -10 5 0 7 5 4 10 -3 6 -8 10 -11 10 -2 0 -4 -4 -4 -10z"/> <path d="M1418 1163 c7 -3 16 -2 19 1 4 3 -2 6 -13 5 -11 0 -14 -3 -6 -6z"/> <path d="M1476 1162 c-3 -5 1 -9 9 -9 8 0 15 4 15 9 0 4 -4 8 -9 8 -6 0 -12 -4 -15 -8z"/> <path d="M2667 1146 c-3 -8 -2 -18 4 -22 16 -9 22 2 11 21 -8 15 -10 16 -15 1z"/> <path d="M2333 1140 c-27 -11 -30 -30 -5 -30 18 1 52 22 52 34 0 8 -20 7 -47 -4z"/> <path d="M1263 1097 c43 -37 50 -49 54 -90 6 -51 23 -65 23 -18 0 28 -23 83 -45 106 -14 14 -63 45 -72 45 -4 0 14 -19 40 -43z"/> <path d="M2815 1130 c3 -5 8 -10 11 -10 2 0 4 5 4 10 0 6 -5 10 -11 10 -5 0 -7 -4 -4 -10z"/> <path d="M986 1114 c-8 -22 -8 -24 6 -24 6 0 8 3 5 7 -4 3 -2 12 4 20 7 8 8 13 1 13 -5 0 -13 -7 -16 -16z"/> <path d="M1418 1113 c7 -3 16 -2 19 1 4 3 -2 6 -13 5 -11 0 -14 -3 -6 -6z"/> <path d="M1220 1075 c-7 -9 -10 -18 -6 -22 3 -3 6 -1 6 5 0 22 26 12 43 -17 21 -35 22 -53 2 -27 -8 11 -15 16 -15 11 0 -5 7 -16 16 -26 20 -22 12 -48 -27 -90 -16 -17 -29 -33 -29 -35 0 -18 67 37 86 71 18 33 3 94 -31 128 -20 21 -29 21 -45 2z"/> <path d="M1465 1056 c-33 -35 -51 -90 -39 -120 3 -9 10 -16 15 -16 14 0 11 28 -3 33 -10 4 -10 6 0 6 7 1 12 14 12 32 0 22 10 40 35 65 20 19 30 34 24 34 -6 0 -26 -15 -44 -34z"/> <path d="M1925 1080 c3 -5 8 -10 11 -10 2 0 4 5 4 10 0 6 -5 10 -11 10 -5 0 -7 -4 -4 -10z"/> <path d="M1795 1039 c-4 -6 -5 -12 -2 -15 2 -3 7 2 10 11 7 17 1 20 -8 4z"/> <path d="M2131 1024 c0 -11 3 -14 6 -6 3 7 2 16 -1 19 -3 4 -6 -2 -5 -13z"/> <path d="M2678 1033 c7 -3 16 -2 19 1 4 3 -2 6 -13 5 -11 0 -14 -3 -6 -6z"/> <path d="M1200 1021 c0 -6 4 -13 10 -16 6 -3 7 1 4 9 -7 18 -14 21 -14 7z"/> <path d="M1770 1000 c0 -5 5 -10 11 -10 5 0 7 5 4 10 -3 6 -8 10 -11 10 -2 0 -4 -4 -4 -10z"/> <path d="M2272 950 c0 -14 2 -19 5 -12 2 6 2 18 0 25 -3 6 -5 1 -5 -13z"/> <path d="M2596 945 c-12 -13 -13 -21 -4 -40 12 -28 28 -33 28 -10 0 16 30 35 57 35 14 0 13 -3 -7 -17 -34 -23 -40 -34 -30 -54 11 -20 57 -14 69 10 10 19 5 59 -10 78 -15 18 -84 16 -103 -2z m94 -55 c-6 -11 -18 -20 -28 -20 -14 1 -13 4 7 20 29 25 34 25 21 0z"/> <path d="M1220 939 c0 -5 5 -7 10 -4 6 3 10 8 10 11 0 2 -4 4 -10 4 -5 0 -10 -5 -10 -11z"/> <path d="M1720 946 c0 -9 30 -14 35 -6 4 6 -3 10 -14 10 -12 0 -21 -2 -21 -4z"/> <path d="M2781 934 c0 -11 3 -14 6 -6 3 7 2 16 -1 19 -3 4 -6 -2 -5 -13z"/> <path d="M1400 887 c0 -41 5 -58 20 -72 11 -10 22 -25 25 -35 5 -14 72 -60 89 -60 16 0 3 16 -22 28 -36 15 -94 97 -90 126 3 18 6 15 21 -16 40 -83 115 -129 200 -120 65 6 60 22 -7 22 -87 0 -127 24 -175 103 -12 20 -27 37 -32 37 -5 0 -9 9 -9 20 0 11 -4 20 -10 20 -5 0 -10 -24 -10 -53z"/> <path d="M1180 926 c0 -2 7 -6 15 -10 8 -3 15 -1 15 4 0 6 -7 10 -15 10 -8 0 -15 -2 -15 -4z"/> <path d="M2243 902 c-1 -22 0 -24 9 -8 6 10 6 22 2 26 -5 5 -10 -3 -11 -18z"/> <path d="M2758 920 c-14 -34 -17 -69 -8 -75 12 -7 23 35 18 66 -3 17 -6 20 -10 9z"/> <path d="M1297 903 c-9 -10 -37 -29 -64 -43 -26 -14 -49 -28 -51 -32 -2 -5 -8 -8 -14 -8 -14 0 -86 -78 -93 -100 -3 -10 -1 -37 4 -61 5 -24 7 -48 3 -53 -3 -6 1 -6 9 1 12 10 22 7 51 -13 61 -44 155 -58 185 -29 8 8 19 15 24 15 5 0 9 6 9 14 0 10 -17 16 -57 19 -32 3 -85 11 -119 17 -50 10 -64 17 -78 40 -9 16 -16 34 -16 40 0 23 107 117 164 144 31 15 60 34 63 42 8 23 -2 26 -20 7z m-49 -313 c8 -8 11 -10 8 -3 -4 7 6 11 29 11 19 0 35 -4 35 -9 0 -19 -51 -19 -111 0 l-64 20 45 -2 c26 -1 50 -8 58 -17z"/> <path d="M1690 905 c0 -8 4 -15 10 -15 5 0 7 7 4 15 -4 8 -8 15 -10 15 -2 0 -4 -7 -4 -15z"/> <path d="M1730 910 c0 -5 7 -10 16 -10 8 0 12 5 9 10 -3 6 -10 10 -16 10 -5 0 -9 -4 -9 -10z"/> <path d="M3342 860 c0 -14 2 -19 5 -12 2 6 2 18 0 25 -3 6 -5 1 -5 -13z"/> <path d="M2146 827 c3 -10 9 -15 12 -12 3 3 0 11 -7 18 -10 9 -11 8 -5 -6z"/> <path d="M1535 810 c10 -11 28 -20 41 -20 13 0 26 -4 29 -10 3 -5 24 -10 46 -10 21 0 39 5 39 10 0 6 -19 10 -42 10 -24 0 -63 9 -87 21 l-45 20 19 -21z"/> <path d="M2740 815 c0 -8 5 -15 10 -15 6 0 10 7 10 15 0 8 -4 15 -10 15 -5 0 -10 -7 -10 -15z"/> <path d="M980 809 c0 -5 5 -7 10 -4 6 3 10 8 10 11 0 2 -4 4 -10 4 -5 0 -10 -5 -10 -11z"/> <path d="M1708 763 c7 -3 16 -2 19 1 4 3 -2 6 -13 5 -11 0 -14 -3 -6 -6z"/> <path d="M2755 760 c3 -5 8 -10 11 -10 2 0 4 5 4 10 0 6 -5 10 -11 10 -5 0 -7 -4 -4 -10z"/> <path d="M2565 750 c-11 -5 -34 -9 -52 -9 -23 -1 -44 -12 -74 -40 l-41 -40 19 -25 c24 -34 36 -32 51 6 15 40 8 48 -18 18 -19 -22 -39 -23 -25 -1 13 23 92 68 127 75 21 4 40 11 43 16 7 12 -3 12 -30 0z"/> <path d="M2951 744 c0 -11 3 -14 6 -6 3 7 2 16 -1 19 -3 4 -6 -2 -5 -13z"/> <path d="M3342 720 c0 -19 2 -27 5 -17 2 9 2 25 0 35 -3 9 -5 1 -5 -18z"/> <path d="M1327 713 c-9 -9 -9 -33 1 -33 4 0 13 9 20 20 10 16 10 20 -1 20 -8 0 -17 -3 -20 -7z"/> <path d="M2156 674 c-9 -25 -2 -26 17 -4 13 16 14 20 3 20 -8 0 -17 -7 -20 -16z"/> <path d="M3343 640 c0 -25 2 -35 4 -22 2 12 2 32 0 45 -2 12 -4 2 -4 -23z"/> <path d="M2665 641 c-3 -5 -1 -12 5 -16 5 -3 10 1 10 9 0 18 -6 21 -15 7z"/> <path d="M2330 626 c0 -9 5 -16 10 -16 6 0 10 4 10 9 0 6 -4 13 -10 16 -5 3 -10 -1 -10 -9z"/> <path d="M2547 633 c-4 -3 -7 -13 -7 -21 0 -18 13 -7 16 13 2 17 1 18 -9 8z"/> <path d="M2595 629 c-4 -6 -5 -12 -2 -15 2 -3 7 2 10 11 7 17 1 20 -8 4z"/> <path d="M2158 613 c7 -3 16 -2 19 1 4 3 -2 6 -13 5 -11 0 -14 -3 -6 -6z"/> <path d="M1372 570 c-41 -22 -80 -44 -88 -51 -18 -14 -41 -61 -49 -99 -10 -46 12 -36 27 12 22 73 99 133 187 146 24 4 46 13 49 20 8 24 -53 11 -126 -28z"/> <path d="M1100 587 c0 -18 43 -92 57 -98 5 -2 18 -17 31 -33 l22 -28 10 26 c5 14 14 37 20 51 8 22 7 25 -11 25 -18 0 -19 -2 -9 -15 7 -9 11 -17 9 -18 -2 -1 -12 -9 -21 -16 -15 -11 -17 -10 -13 9 6 31 -3 47 -36 60 -16 7 -36 22 -44 34 -13 18 -15 18 -15 3z"/> <path d="M2320 595 c0 -5 5 -17 10 -25 5 -8 10 -10 10 -5 0 6 -5 17 -10 25 -5 8 -10 11 -10 5z"/> <path d="M2361 543 c7 -12 15 -20 18 -17 3 2 -3 12 -13 22 -17 16 -18 16 -5 -5z"/> <path d="M2000 541 c0 -6 4 -13 10 -16 6 -3 7 1 4 9 -7 18 -14 21 -14 7z"/> <path d="M1880 525 c-11 -13 -10 -14 4 -9 9 3 16 10 16 15 0 13 -6 11 -20 -6z"/> <path d="M1450 490 c0 -5 5 -10 10 -10 6 0 10 5 10 10 0 6 -4 10 -10 10 -5 0 -10 -4 -10 -10z"/> <path d="M1050 485 c0 -5 5 -17 10 -25 5 -8 10 -10 10 -5 0 6 -5 17 -10 25 -5 8 -10 11 -10 5z"/> <path d="M2345 480 c3 -5 11 -10 16 -10 6 0 7 5 4 10 -3 6 -11 10 -16 10 -6 0 -7 -4 -4 -10z"/> <path d="M1395 471 c-3 -5 0 -13 6 -17 7 -4 9 -3 5 4 -3 6 2 13 11 15 16 4 16 5 1 6 -9 0 -19 -3 -23 -8z"/> <path d="M1880 464 c0 -5 7 -17 14 -27 13 -16 14 -16 27 0 12 14 12 16 0 8 -9 -5 -19 -2 -28 10 -7 11 -13 15 -13 9z"/> <path d="M2002 415 c3 -27 13 -33 21 -12 2 6 -2 18 -9 25 -11 10 -13 8 -12 -13z"/> <path d="M2450 430 c-8 -5 -12 -12 -9 -15 4 -3 12 1 19 10 14 17 11 19 -10 5z"/> <path d="M2620 420 c0 -11 4 -20 9 -20 11 0 22 26 14 34 -12 12 -23 5 -23 -14z"/> <path d="M2771 424 c0 -11 3 -14 6 -6 3 7 2 16 -1 19 -3 4 -6 -2 -5 -13z"/> <path d="M3342 420 c0 -14 2 -19 5 -12 2 6 2 18 0 25 -3 6 -5 1 -5 -13z"/> <path d="M1915 400 c-3 -5 -1 -10 4 -10 6 0 11 5 11 10 0 6 -2 10 -4 10 -3 0 -8 -4 -11 -10z"/> <path d="M2465 399 c-4 -6 -4 -13 -1 -16 3 -4 6 -1 6 6 0 7 5 9 12 5 7 -4 8 -3 4 4 -9 15 -13 15 -21 1z"/> <path d="M1833 373 c-16 -6 25 -63 44 -63 7 0 13 -5 13 -12 0 -6 3 -8 7 -4 4 4 -5 17 -19 29 -14 12 -27 29 -29 38 -2 9 -10 14 -16 12z"/> <path d="M2465 359 c-11 -16 -1 -19 13 -3 7 8 8 14 3 14 -5 0 -13 -5 -16 -11z"/> <path d="M2350 319 c0 -5 5 -7 10 -4 6 3 10 8 10 11 0 2 -4 4 -10 4 -5 0 -10 -5 -10 -11z"/> <path d="M1395 300 c4 -6 11 -8 16 -5 14 9 11 15 -7 15 -8 0 -12 -5 -9 -10z"/> <path d="M1690 291 c0 -5 5 -13 10 -16 6 -3 10 -2 10 4 0 5 -4 13 -10 16 -5 3 -10 2 -10 -4z"/> <path d="M2665 290 c3 -5 8 -10 11 -10 2 0 4 5 4 10 0 6 -5 10 -11 10 -5 0 -7 -4 -4 -10z"/> <path d="M3630 264 c0 -8 5 -12 10 -9 6 3 10 10 10 16 0 5 -4 9 -10 9 -5 0 -10 -7 -10 -16z"/> <path d="M2635 249 c-4 -6 -5 -12 -2 -15 2 -3 7 2 10 11 7 17 1 20 -8 4z"/> <path d="M1180 240 c0 -5 7 -10 16 -10 8 0 12 5 9 10 -3 6 -10 10 -16 10 -5 0 -9 -4 -9 -10z"/> <path d="M2430 240 c0 -5 5 -10 11 -10 5 0 7 5 4 10 -3 6 -8 10 -11 10 -2 0 -4 -4 -4 -10z"/> <path d="M1765 220 c-3 -5 -2 -10 4 -10 5 0 13 5 16 10 3 6 2 10 -4 10 -5 0 -13 -4 -16 -10z"/> <path d="M2390 220 c0 -5 7 -10 15 -10 8 0 15 5 15 10 0 6 -7 10 -15 10 -8 0 -15 -4 -15 -10z"/> <path d="M3631 214 c0 -11 3 -14 6 -6 3 7 2 16 -1 19 -3 4 -6 -2 -5 -13z"/> <path d="M2667 209 c7 -7 15 -10 18 -7 3 3 -2 9 -12 12 -14 6 -15 5 -6 -5z"/> <path d="M2028 123 c7 -3 16 -2 19 1 4 3 -2 6 -13 5 -11 0 -14 -3 -6 -6z"/> </g> </svg>